%TF.GenerationSoftware,KiCad,Pcbnew,8.0.3*%
%TF.CreationDate,2024-06-12T08:46:35+02:00*%
%TF.ProjectId,EVT-PCB,4556542d-5043-4422-9e6b-696361645f70,rev?*%
%TF.SameCoordinates,PX3d6aa80PY9402a00*%
%TF.FileFunction,Profile,NP*%
%FSLAX46Y46*%
G04 Gerber Fmt 4.6, Leading zero omitted, Abs format (unit mm)*
G04 Created by KiCad (PCBNEW 8.0.3) date 2024-06-12 08:46:35*
%MOMM*%
%LPD*%
G01*
G04 APERTURE LIST*
%TA.AperFunction,Profile*%
%ADD10C,0.100000*%
%TD*%
G04 APERTURE END LIST*
D10*
X49600000Y89000000D02*
X49600000Y82100000D01*
X74600000Y85100000D02*
X66750000Y85100000D01*
X47600000Y89000000D02*
G75*
G02*
X49600000Y89000000I1000000J0D01*
G01*
X84600000Y0D02*
X84600000Y102900000D01*
X8500000Y5600000D02*
G75*
G02*
X7000000Y7100000I0J1500000D01*
G01*
X5000000Y13650000D02*
G75*
G02*
X7000000Y13650000I1000000J0D01*
G01*
X49600000Y56300000D02*
X49600000Y63200000D01*
X5000000Y77650000D02*
X5000000Y90850000D01*
X49600000Y74100000D02*
G75*
G02*
X52600000Y77100000I3000000J0D01*
G01*
X79600000Y900000D02*
X79600000Y0D01*
X66750000Y96900000D02*
G75*
G02*
X63750000Y99900000I0J3000000D01*
G01*
X54675000Y79100000D02*
G75*
G02*
X54675000Y77100000I0J-1000000D01*
G01*
X77600000Y93900000D02*
X77600000Y93000000D01*
X49600000Y20550000D02*
X49600000Y38550000D01*
X74600000Y72100000D02*
X66250000Y72100000D01*
X60950000Y51300000D02*
X58675000Y51300000D01*
X7000000Y17650000D02*
G75*
G02*
X5000000Y17650000I-1000000J0D01*
G01*
X77600000Y20650000D02*
X77600000Y27550000D01*
X30300000Y41100000D02*
X24300000Y41100000D01*
X22900000Y0D02*
G75*
G02*
X21900000Y1000000I0J1000000D01*
G01*
X74600000Y41450000D02*
G75*
G02*
X77600000Y38450000I0J-3000000D01*
G01*
X77600000Y31550000D02*
X77600000Y38450000D01*
X47600000Y1800000D02*
G75*
G02*
X49600000Y1800000I1000000J0D01*
G01*
X47600000Y63200000D02*
G75*
G02*
X49600000Y63200000I1000000J0D01*
G01*
X49600000Y67200000D02*
X49600000Y74100000D01*
X47600000Y16550000D02*
G75*
G02*
X49600000Y16550000I1000000J0D01*
G01*
X30300000Y41100000D02*
G75*
G02*
X30300000Y39100000I0J-1000000D01*
G01*
X49600000Y42550000D02*
G75*
G02*
X47600000Y42550000I-1000000J0D01*
G01*
X7000000Y90850000D02*
X7000000Y77650000D01*
X5000000Y33650000D02*
G75*
G02*
X7000000Y33650000I1000000J0D01*
G01*
X52600000Y53300000D02*
G75*
G02*
X49600000Y56300000I0J3000000D01*
G01*
X65950000Y17650000D02*
X74600000Y17650000D01*
X49600000Y67200000D02*
G75*
G02*
X47600000Y67200000I-1000000J0D01*
G01*
X77600000Y67200000D02*
X77600000Y69100000D01*
X60750000Y102900000D02*
X52600000Y102900000D01*
X49600000Y16550000D02*
X49600000Y10800000D01*
X60950000Y51300000D02*
G75*
G02*
X63450000Y48800000I0J-2500000D01*
G01*
X5000000Y90850000D02*
G75*
G02*
X7000000Y90850000I1000000J0D01*
G01*
X77600000Y27550000D02*
G75*
G02*
X79600000Y27550000I1000000J0D01*
G01*
X58675000Y77100000D02*
G75*
G02*
X58675000Y79100000I0J1000000D01*
G01*
X58675000Y53300000D02*
X61250000Y53300000D01*
X46100000Y102900000D02*
G75*
G02*
X47600000Y101400000I0J-1500000D01*
G01*
X49600000Y99900000D02*
X49600000Y93000000D01*
X61250000Y77100000D02*
X58675000Y77100000D01*
X58675000Y7800000D02*
X60950000Y7800000D01*
X5000000Y102900000D02*
X5000000Y94850000D01*
X60750000Y102900000D02*
G75*
G02*
X63750000Y99900000I0J-3000000D01*
G01*
X47600000Y1500000D02*
G75*
G02*
X46100000Y0I-1500000J0D01*
G01*
X5000000Y53650000D02*
G75*
G02*
X7000000Y53650000I1000000J0D01*
G01*
X47600000Y38550000D02*
X47600000Y20550000D01*
X77600000Y88100000D02*
G75*
G02*
X74600000Y85100000I-3000000J0D01*
G01*
X74600000Y72100000D02*
G75*
G02*
X77600000Y69100000I0J-3000000D01*
G01*
X54675000Y53300000D02*
G75*
G02*
X54675000Y51300000I0J-1000000D01*
G01*
X77600000Y20650000D02*
G75*
G02*
X74600000Y17650000I-3000000J0D01*
G01*
X0Y0D02*
X0Y102900000D01*
X77600000Y61300000D02*
G75*
G02*
X74600000Y58300000I-3000000J0D01*
G01*
X7000000Y37650000D02*
G75*
G02*
X5000000Y37650000I-1000000J0D01*
G01*
X49600000Y93000000D02*
G75*
G02*
X47600000Y93000000I-1000000J0D01*
G01*
X79600000Y93000000D02*
X79600000Y102900000D01*
X52600000Y53300000D02*
X54675000Y53300000D01*
X5000000Y102900000D02*
X0Y102900000D01*
X79600000Y31550000D02*
G75*
G02*
X77600000Y31550000I-1000000J0D01*
G01*
X79600000Y4900000D02*
G75*
G02*
X77600000Y4900000I-1000000J0D01*
G01*
X49600000Y20550000D02*
G75*
G02*
X47600000Y20550000I-1000000J0D01*
G01*
X77600000Y900000D02*
G75*
G02*
X79600000Y900000I1000000J0D01*
G01*
X52600000Y7800000D02*
X54675000Y7800000D01*
X63450000Y15150000D02*
G75*
G02*
X65950000Y17650000I2500000J0D01*
G01*
X7000000Y94850000D02*
G75*
G02*
X5000000Y94850000I-1000000J0D01*
G01*
X77600000Y88100000D02*
X77600000Y89000000D01*
X49600000Y0D02*
X49600000Y1800000D01*
X74600000Y96900000D02*
X66750000Y96900000D01*
X77600000Y0D02*
X77600000Y900000D01*
X20400000Y5600000D02*
X8500000Y5600000D01*
X5000000Y57650000D02*
X5000000Y73650000D01*
X21900000Y1000000D02*
X21900000Y4100000D01*
X5000000Y37650000D02*
X5000000Y53650000D01*
X46100000Y0D02*
X22900000Y0D01*
X49600000Y0D02*
X77600000Y0D01*
X49600000Y48300000D02*
G75*
G02*
X52600000Y51300000I3000000J0D01*
G01*
X61250000Y77100000D02*
G75*
G02*
X63750000Y74600000I0J-2500000D01*
G01*
X7000000Y73650000D02*
X7000000Y57650000D01*
X52600000Y7800000D02*
G75*
G02*
X49600000Y10800000I0J3000000D01*
G01*
X7000000Y101400000D02*
G75*
G02*
X8500000Y102900000I1500000J0D01*
G01*
X49600000Y99900000D02*
G75*
G02*
X52600000Y102900000I3000000J0D01*
G01*
X58675000Y79100000D02*
X60750000Y79100000D01*
X79600000Y102900000D02*
X84600000Y102900000D01*
X52600000Y51300000D02*
X54675000Y51300000D01*
X47600000Y89000000D02*
X47600000Y67200000D01*
X7000000Y13650000D02*
X7000000Y7100000D01*
X74600000Y58300000D02*
X66250000Y58300000D01*
X63750000Y82100000D02*
G75*
G02*
X66750000Y85100000I3000000J0D01*
G01*
X79600000Y0D02*
X84600000Y0D01*
X63750000Y82100000D02*
G75*
G02*
X60750000Y79100000I-3000000J0D01*
G01*
X49600000Y42550000D02*
X49600000Y48300000D01*
X74600000Y96900000D02*
G75*
G02*
X77600000Y93900000I0J-3000000D01*
G01*
X77600000Y61300000D02*
X77600000Y63200000D01*
X79600000Y31550000D02*
X79600000Y63200000D01*
X5000000Y17650000D02*
X5000000Y33650000D01*
X79600000Y93000000D02*
G75*
G02*
X77600000Y93000000I-1000000J0D01*
G01*
X24300000Y39100000D02*
G75*
G02*
X24300000Y41100000I0J1000000D01*
G01*
X77600000Y63200000D02*
G75*
G02*
X79600000Y63200000I1000000J0D01*
G01*
X77600000Y4900000D02*
X77600000Y5800000D01*
X7000000Y33650000D02*
X7000000Y17650000D01*
X52600000Y77100000D02*
X54675000Y77100000D01*
X63750000Y55800000D02*
G75*
G02*
X66250000Y58300000I2500000J0D01*
G01*
X54675000Y5800000D02*
X49600000Y5800000D01*
X52600000Y79100000D02*
G75*
G02*
X49600000Y82100000I0J3000000D01*
G01*
X52600000Y79100000D02*
X54675000Y79100000D01*
X5000000Y0D02*
X0Y0D01*
X79600000Y67200000D02*
G75*
G02*
X77600000Y67200000I-1000000J0D01*
G01*
X5000000Y73650000D02*
G75*
G02*
X7000000Y73650000I1000000J0D01*
G01*
X7000000Y77650000D02*
G75*
G02*
X5000000Y77650000I-1000000J0D01*
G01*
X20400000Y5600000D02*
G75*
G02*
X21900000Y4100000I0J-1500000D01*
G01*
X63450000Y43950000D02*
X63450000Y48800000D01*
X63450000Y10300000D02*
G75*
G02*
X60950000Y7800000I-2500000J0D01*
G01*
X58675000Y51300000D02*
G75*
G02*
X58675000Y53300000I0J1000000D01*
G01*
X63450000Y15150000D02*
X63450000Y10300000D01*
X24300000Y39100000D02*
X30300000Y39100000D01*
X5000000Y13650000D02*
X5000000Y0D01*
X65950000Y41450000D02*
X74600000Y41450000D01*
X65950000Y41450000D02*
G75*
G02*
X63450000Y43950000I0J2500000D01*
G01*
X47600000Y38550000D02*
G75*
G02*
X49600000Y38550000I1000000J0D01*
G01*
X7000000Y94850000D02*
X7000000Y101400000D01*
X7000000Y57650000D02*
G75*
G02*
X5000000Y57650000I-1000000J0D01*
G01*
X47600000Y5800000D02*
X47600000Y16550000D01*
X63750000Y55800000D02*
G75*
G02*
X61250000Y53300000I-2500000J0D01*
G01*
X77600000Y89000000D02*
G75*
G02*
X79600000Y89000000I1000000J0D01*
G01*
X7000000Y53650000D02*
X7000000Y37650000D01*
X49600000Y5800000D02*
G75*
G02*
X47600000Y5800000I-1000000J0D01*
G01*
X47600000Y93000000D02*
X47600000Y101400000D01*
X54675000Y7800000D02*
G75*
G02*
X54675000Y5800000I0J-1000000D01*
G01*
X47600000Y1800000D02*
X47600000Y1500000D01*
X79600000Y27550000D02*
X79600000Y4900000D01*
X66250000Y72100000D02*
G75*
G02*
X63750000Y74600000I0J2500000D01*
G01*
X79600000Y67200000D02*
X79600000Y89000000D01*
X47600000Y63200000D02*
X47600000Y42550000D01*
X58675000Y5800000D02*
G75*
G02*
X58675000Y7800000I0J1000000D01*
G01*
X77600000Y5800000D02*
X58675000Y5800000D01*
X46100000Y102900000D02*
X8500000Y102900000D01*
M02*
