%TF.GenerationSoftware,KiCad,Pcbnew,8.0.3*%
%TF.CreationDate,2024-06-12T08:46:35+02:00*%
%TF.ProjectId,EVT-PCB,4556542d-5043-4422-9e6b-696361645f70,rev?*%
%TF.SameCoordinates,PX3d6aa80PY9402a00*%
%TF.FileFunction,Soldermask,Top*%
%TF.FilePolarity,Negative*%
%FSLAX46Y46*%
G04 Gerber Fmt 4.6, Leading zero omitted, Abs format (unit mm)*
G04 Created by KiCad (PCBNEW 8.0.3) date 2024-06-12 08:46:35*
%MOMM*%
%LPD*%
G01*
G04 APERTURE LIST*
G04 Aperture macros list*
%AMRoundRect*
0 Rectangle with rounded corners*
0 $1 Rounding radius*
0 $2 $3 $4 $5 $6 $7 $8 $9 X,Y pos of 4 corners*
0 Add a 4 corners polygon primitive as box body*
4,1,4,$2,$3,$4,$5,$6,$7,$8,$9,$2,$3,0*
0 Add four circle primitives for the rounded corners*
1,1,$1+$1,$2,$3*
1,1,$1+$1,$4,$5*
1,1,$1+$1,$6,$7*
1,1,$1+$1,$8,$9*
0 Add four rect primitives between the rounded corners*
20,1,$1+$1,$2,$3,$4,$5,0*
20,1,$1+$1,$4,$5,$6,$7,0*
20,1,$1+$1,$6,$7,$8,$9,0*
20,1,$1+$1,$8,$9,$2,$3,0*%
%AMFreePoly0*
4,1,17,0.823462,0.239262,0.838400,0.203200,0.838400,-0.304800,0.823462,-0.340862,0.787399,-0.355800,0.152600,-0.355800,0.152600,-1.269990,0.137662,-1.306052,0.101600,-1.320990,-0.304800,-1.320990,-0.340862,-1.306052,-0.355800,-1.269990,-0.355800,0.203201,-0.340862,0.239262,-0.304800,0.254200,0.787399,0.254200,0.823462,0.239262,0.823462,0.239262,$1*%
%AMFreePoly1*
4,1,17,0.340862,0.239262,0.355800,0.203201,0.355800,-1.269990,0.340862,-1.306052,0.304800,-1.320990,-0.101600,-1.320990,-0.137662,-1.306052,-0.152600,-1.269990,-0.152600,-0.355800,-0.787399,-0.355800,-0.823462,-0.340862,-0.838400,-0.304800,-0.838400,0.203200,-0.823462,0.239262,-0.787399,0.254200,0.304800,0.254200,0.340862,0.239262,0.340862,0.239262,$1*%
G04 Aperture macros list end*
%ADD10R,1.900000X1.100000*%
%ADD11RoundRect,0.102000X-1.150000X0.350000X-1.150000X-0.350000X1.150000X-0.350000X1.150000X0.350000X0*%
%ADD12C,0.500000*%
%ADD13RoundRect,0.218750X0.256250X-0.218750X0.256250X0.218750X-0.256250X0.218750X-0.256250X-0.218750X0*%
%ADD14RoundRect,0.140000X0.140000X0.170000X-0.140000X0.170000X-0.140000X-0.170000X0.140000X-0.170000X0*%
%ADD15C,1.000000*%
%ADD16C,2.200000*%
%ADD17FreePoly0,45.000000*%
%ADD18RoundRect,0.051000X0.341250X-0.053882X-0.053882X0.341250X-0.341250X0.053882X0.053882X-0.341250X0*%
%ADD19FreePoly1,225.000000*%
%ADD20FreePoly0,345.000000*%
%ADD21RoundRect,0.051000X0.123962X-0.322472X0.268590X0.217288X-0.123962X0.322472X-0.268590X-0.217288X0*%
%ADD22FreePoly1,165.000000*%
%ADD23C,1.522000*%
%ADD24RoundRect,0.102000X-1.460000X0.370000X-1.460000X-0.370000X1.460000X-0.370000X1.460000X0.370000X0*%
%ADD25FreePoly0,255.000000*%
%ADD26RoundRect,0.051000X-0.322472X-0.123962X0.217288X-0.268590X0.322472X0.123962X-0.217288X0.268590X0*%
%ADD27FreePoly1,75.000000*%
%ADD28RoundRect,0.140000X0.186819X-0.116613X0.150272X0.160992X-0.186819X0.116613X-0.150272X-0.160992X0*%
%ADD29RoundRect,0.051000X-0.673100X-0.266700X0.673100X-0.266700X0.673100X0.266700X-0.673100X0.266700X0*%
%ADD30RoundRect,0.051000X-0.600000X0.300000X-0.600000X-0.300000X0.600000X-0.300000X0.600000X0.300000X0*%
%ADD31RoundRect,0.140000X-0.220097X0.007580X-0.049643X-0.214559X0.220097X-0.007580X0.049643X0.214559X0*%
%ADD32RoundRect,0.140000X0.103484X-0.194399X0.210635X0.064287X-0.103484X0.194399X-0.210635X-0.064287X0*%
%ADD33RoundRect,0.051000X-0.300000X-0.600000X0.300000X-0.600000X0.300000X0.600000X-0.300000X0.600000X0*%
%ADD34RoundRect,0.051000X-0.650000X0.550000X-0.650000X-0.550000X0.650000X-0.550000X0.650000X0.550000X0*%
%ADD35RoundRect,0.140000X0.064287X0.210635X-0.194399X0.103484X-0.064287X-0.210635X0.194399X-0.103484X0*%
%ADD36RoundRect,0.135000X0.135000X0.185000X-0.135000X0.185000X-0.135000X-0.185000X0.135000X-0.185000X0*%
%ADD37RoundRect,0.140000X-0.170000X0.140000X-0.170000X-0.140000X0.170000X-0.140000X0.170000X0.140000X0*%
%ADD38FreePoly0,270.000000*%
%ADD39RoundRect,0.051000X-0.279400X-0.203200X0.279400X-0.203200X0.279400X0.203200X-0.279400X0.203200X0*%
%ADD40FreePoly1,90.000000*%
%ADD41C,2.000000*%
%ADD42FreePoly0,240.000000*%
%ADD43RoundRect,0.051000X-0.343567X-0.036276X0.140367X-0.315676X0.343567X0.036276X-0.140367X0.315676X0*%
%ADD44FreePoly1,60.000000*%
%ADD45C,3.102000*%
%ADD46RoundRect,0.051000X-0.500000X0.500000X-0.500000X-0.500000X0.500000X-0.500000X0.500000X0.500000X0*%
%ADD47RoundRect,0.140000X-0.210635X0.064287X-0.103484X-0.194399X0.210635X-0.064287X0.103484X0.194399X0*%
%ADD48FreePoly0,120.000000*%
%ADD49RoundRect,0.051000X0.140367X0.315676X-0.343567X0.036276X-0.140367X-0.315676X0.343567X-0.036276X0*%
%ADD50FreePoly1,300.000000*%
%ADD51FreePoly0,90.000000*%
%ADD52RoundRect,0.051000X0.279400X0.203200X-0.279400X0.203200X-0.279400X-0.203200X0.279400X-0.203200X0*%
%ADD53FreePoly1,270.000000*%
%ADD54FreePoly0,165.000000*%
%ADD55RoundRect,0.051000X-0.123962X0.322472X-0.268590X-0.217288X0.123962X-0.322472X0.268590X0.217288X0*%
%ADD56FreePoly1,345.000000*%
%ADD57FreePoly0,195.000000*%
%ADD58RoundRect,0.051000X-0.268590X0.217288X-0.123962X-0.322472X0.268590X-0.217288X0.123962X0.322472X0*%
%ADD59FreePoly1,15.000000*%
%ADD60C,0.752000*%
%ADD61RoundRect,0.102000X-0.300000X-0.575000X0.300000X-0.575000X0.300000X0.575000X-0.300000X0.575000X0*%
%ADD62RoundRect,0.102000X-0.150000X-0.575000X0.150000X-0.575000X0.150000X0.575000X-0.150000X0.575000X0*%
%ADD63O,1.204000X2.304000*%
%ADD64RoundRect,0.301000X-0.301000X-0.701000X0.301000X-0.701000X0.301000X0.701000X-0.301000X0.701000X0*%
%ADD65RoundRect,0.051000X0.175000X0.250000X-0.175000X0.250000X-0.175000X-0.250000X0.175000X-0.250000X0*%
%ADD66RoundRect,0.140000X-0.049643X0.214559X-0.220097X-0.007580X0.049643X-0.214559X0.220097X0.007580X0*%
%ADD67RoundRect,0.140000X-0.116613X-0.186819X0.160992X-0.150272X0.116613X0.186819X-0.160992X0.150272X0*%
%ADD68FreePoly0,75.000000*%
%ADD69RoundRect,0.051000X0.322472X0.123962X-0.217288X0.268590X-0.322472X-0.123962X0.217288X-0.268590X0*%
%ADD70FreePoly1,255.000000*%
%ADD71RoundRect,0.140000X0.049643X-0.214559X0.220097X0.007580X-0.049643X0.214559X-0.220097X-0.007580X0*%
%ADD72FreePoly0,210.000000*%
%ADD73RoundRect,0.051000X-0.315676X0.140367X-0.036276X-0.343567X0.315676X-0.140367X0.036276X0.343567X0*%
%ADD74FreePoly1,30.000000*%
%ADD75R,1.700000X1.700000*%
%ADD76O,1.700000X1.700000*%
%ADD77FreePoly0,0.000000*%
%ADD78RoundRect,0.051000X0.203200X-0.279400X0.203200X0.279400X-0.203200X0.279400X-0.203200X-0.279400X0*%
%ADD79FreePoly1,180.000000*%
%ADD80RoundRect,0.102000X1.460000X-0.370000X1.460000X0.370000X-1.460000X0.370000X-1.460000X-0.370000X0*%
%ADD81FreePoly0,330.000000*%
%ADD82RoundRect,0.051000X0.036276X-0.343567X0.315676X0.140367X-0.036276X0.343567X-0.315676X-0.140367X0*%
%ADD83FreePoly1,150.000000*%
%ADD84RoundRect,0.140000X0.220097X-0.007580X0.049643X0.214559X-0.220097X0.007580X-0.049643X-0.214559X0*%
%ADD85RoundRect,0.140000X-0.103484X0.194399X-0.210635X-0.064287X0.103484X-0.194399X0.210635X0.064287X0*%
%ADD86RoundRect,0.140000X-0.007580X-0.220097X0.214559X-0.049643X0.007580X0.220097X-0.214559X0.049643X0*%
%ADD87C,1.602000*%
%ADD88O,3.102000X3.902000*%
%ADD89RoundRect,0.135000X-0.185000X0.135000X-0.185000X-0.135000X0.185000X-0.135000X0.185000X0.135000X0*%
%ADD90RoundRect,0.140000X0.210635X-0.064287X0.103484X0.194399X-0.210635X0.064287X-0.103484X-0.194399X0*%
%ADD91RoundRect,0.140000X0.007580X0.220097X-0.214559X0.049643X-0.007580X-0.220097X0.214559X-0.049643X0*%
%ADD92RoundRect,0.140000X-0.214559X-0.049643X0.007580X-0.220097X0.214559X0.049643X-0.007580X0.220097X0*%
%ADD93RoundRect,0.140000X0.116613X0.186819X-0.160992X0.150272X-0.116613X-0.186819X0.160992X-0.150272X0*%
%ADD94FreePoly0,30.000000*%
%ADD95RoundRect,0.051000X0.315676X-0.140367X0.036276X0.343567X-0.315676X0.140367X-0.036276X-0.343567X0*%
%ADD96FreePoly1,210.000000*%
%ADD97FreePoly0,315.000000*%
%ADD98RoundRect,0.051000X-0.053882X-0.341250X0.341250X0.053882X0.053882X0.341250X-0.341250X-0.053882X0*%
%ADD99FreePoly1,135.000000*%
%ADD100RoundRect,0.140000X-0.140000X-0.170000X0.140000X-0.170000X0.140000X0.170000X-0.140000X0.170000X0*%
%ADD101RoundRect,0.140000X0.150272X-0.160992X0.186819X0.116613X-0.150272X0.160992X-0.186819X-0.116613X0*%
%ADD102FreePoly0,15.000000*%
%ADD103RoundRect,0.051000X0.268590X-0.217288X0.123962X0.322472X-0.268590X0.217288X-0.123962X-0.322472X0*%
%ADD104FreePoly1,195.000000*%
%ADD105FreePoly0,300.000000*%
%ADD106RoundRect,0.051000X-0.140367X-0.315676X0.343567X-0.036276X0.140367X0.315676X-0.343567X0.036276X0*%
%ADD107FreePoly1,120.000000*%
%ADD108RoundRect,0.140000X-0.064287X-0.210635X0.194399X-0.103484X0.064287X0.210635X-0.194399X0.103484X0*%
%ADD109RoundRect,0.140000X-0.194399X-0.103484X0.064287X-0.210635X0.194399X0.103484X-0.064287X0.210635X0*%
%ADD110FreePoly0,135.000000*%
%ADD111RoundRect,0.051000X0.053882X0.341250X-0.341250X-0.053882X-0.053882X-0.341250X0.341250X0.053882X0*%
%ADD112FreePoly1,315.000000*%
%ADD113FreePoly0,150.000000*%
%ADD114RoundRect,0.051000X-0.036276X0.343567X-0.315676X-0.140367X0.036276X-0.343567X0.315676X0.140367X0*%
%ADD115FreePoly1,330.000000*%
%ADD116RoundRect,0.140000X0.160992X0.150272X-0.116613X0.186819X-0.160992X-0.150272X0.116613X-0.186819X0*%
%ADD117RoundRect,0.140000X0.214559X0.049643X-0.007580X0.220097X-0.214559X-0.049643X0.007580X-0.220097X0*%
%ADD118FreePoly0,285.000000*%
%ADD119RoundRect,0.051000X-0.217288X-0.268590X0.322472X-0.123962X0.217288X0.268590X-0.322472X0.123962X0*%
%ADD120FreePoly1,105.000000*%
%ADD121FreePoly0,105.000000*%
%ADD122RoundRect,0.051000X0.217288X0.268590X-0.322472X0.123962X-0.217288X-0.268590X0.322472X-0.123962X0*%
%ADD123FreePoly1,285.000000*%
%ADD124RoundRect,0.140000X-0.186819X0.116613X-0.150272X-0.160992X0.186819X-0.116613X0.150272X0.160992X0*%
%ADD125FreePoly0,60.000000*%
%ADD126RoundRect,0.051000X0.343567X0.036276X-0.140367X0.315676X-0.343567X-0.036276X0.140367X-0.315676X0*%
%ADD127FreePoly1,240.000000*%
%ADD128RoundRect,0.140000X-0.160992X-0.150272X0.116613X-0.186819X0.160992X0.150272X-0.116613X0.186819X0*%
%ADD129RoundRect,0.140000X0.194399X0.103484X-0.064287X0.210635X-0.194399X-0.103484X0.064287X-0.210635X0*%
%ADD130RoundRect,0.140000X-0.150272X0.160992X-0.186819X-0.116613X0.150272X-0.160992X0.186819X0.116613X0*%
%ADD131FreePoly0,180.000000*%
%ADD132RoundRect,0.051000X-0.203200X0.279400X-0.203200X-0.279400X0.203200X-0.279400X0.203200X0.279400X0*%
%ADD133FreePoly1,0.000000*%
%ADD134FreePoly0,225.000000*%
%ADD135RoundRect,0.051000X-0.341250X0.053882X0.053882X-0.341250X0.341250X-0.053882X-0.053882X0.341250X0*%
%ADD136FreePoly1,45.000000*%
%ADD137C,1.727000*%
%ADD138C,1.102000*%
G04 APERTURE END LIST*
D10*
%TO.C,J401*%
X38700000Y43000000D03*
X38700000Y37600000D03*
D11*
X35200000Y39550000D03*
X35200000Y41050000D03*
%TD*%
D12*
%TO.C,mouse-bite-2mm-slot*%
X47850000Y3050000D03*
X49350000Y3050000D03*
X47850000Y3800000D03*
X49350000Y3800000D03*
X47850000Y4550000D03*
X49350000Y4550000D03*
%TD*%
%TO.C,mouse-bite-2mm-slot3*%
X57425000Y77350000D03*
X57425000Y78850000D03*
X56675000Y77350000D03*
X56675000Y78850000D03*
X55925000Y77350000D03*
X55925000Y78850000D03*
%TD*%
D13*
%TO.C,D1201*%
X60250000Y64412500D03*
X60250000Y65987500D03*
%TD*%
D14*
%TO.C,C1202*%
X73330000Y59000000D03*
X72370000Y59000000D03*
%TD*%
D15*
%TO.C,TP117*%
X23340000Y67400000D03*
%TD*%
%TO.C,TP1303*%
X67630000Y37140000D03*
%TD*%
%TO.C,TP1101*%
X67025000Y86175000D03*
%TD*%
%TO.C,TP106*%
X8600000Y16400000D03*
%TD*%
D16*
%TO.C,H1302*%
X60450000Y48300000D03*
%TD*%
D17*
%TO.C,D510*%
X35864799Y12983667D03*
D18*
X36986832Y12707082D03*
X35077644Y14616270D03*
D19*
X35356557Y13493545D03*
%TD*%
D20*
%TO.C,D514*%
X23860628Y10024501D03*
D21*
X24182115Y8914499D03*
X24880926Y11522498D03*
D22*
X24048075Y10719590D03*
%TD*%
D15*
%TO.C,TP1108*%
X63350000Y84100000D03*
%TD*%
D23*
%TO.C,J1101*%
X54268000Y101480000D03*
X54268000Y80520000D03*
D24*
X52553000Y99890000D03*
X55983000Y99890000D03*
X52553000Y98620000D03*
X55983000Y98620000D03*
X52553000Y97350000D03*
X55983000Y97350000D03*
X52553000Y96080000D03*
X55983000Y96080000D03*
X52553000Y94810000D03*
X55983000Y94810000D03*
X52553000Y93540000D03*
X55983000Y93540000D03*
X52553000Y92270000D03*
X55983000Y92270000D03*
X52553000Y91000000D03*
X55983000Y91000000D03*
X52553000Y89730000D03*
X55983000Y89730000D03*
X52553000Y88460000D03*
X55983000Y88460000D03*
X52553000Y87190000D03*
X55983000Y87190000D03*
X52553000Y85920000D03*
X55983000Y85920000D03*
X52553000Y84650000D03*
X55983000Y84650000D03*
X52553000Y83380000D03*
X55983000Y83380000D03*
X52553000Y82110000D03*
X55983000Y82110000D03*
%TD*%
D25*
%TO.C,D520*%
X15424500Y25339372D03*
D26*
X14314498Y25017885D03*
X16922497Y24319074D03*
D27*
X16119589Y25151925D03*
%TD*%
D12*
%TO.C,mouse-bite-2mm-slot*%
X57425000Y6050000D03*
X57425000Y7550000D03*
X56675000Y6050000D03*
X56675000Y7550000D03*
X55925000Y6050000D03*
X55925000Y7550000D03*
%TD*%
D28*
%TO.C,C527*%
X25796338Y33321441D03*
X25671032Y34273235D03*
%TD*%
D29*
%TO.C,U1104*%
X60345000Y90570000D03*
X60345000Y89300000D03*
X60345000Y88030000D03*
X64155000Y88030000D03*
X64155000Y89300000D03*
X64155000Y90570000D03*
%TD*%
D14*
%TO.C,C1106*%
X61730000Y86300000D03*
X60770000Y86300000D03*
%TD*%
D30*
%TO.C,D301*%
X17150000Y7250000D03*
X17150000Y8200000D03*
X17150000Y9150000D03*
X14650000Y9150000D03*
X14650000Y8200000D03*
X14650000Y7250000D03*
%TD*%
D31*
%TO.C,C513*%
X34312932Y12760569D03*
X34897342Y11998951D03*
%TD*%
D15*
%TO.C,TP123*%
X19000000Y62100000D03*
%TD*%
D32*
%TO.C,C505*%
X31708513Y32543093D03*
X32075889Y33430017D03*
%TD*%
D15*
%TO.C,TP102*%
X38700000Y64300000D03*
%TD*%
%TO.C,TP121*%
X16400000Y62300000D03*
%TD*%
D33*
%TO.C,U1101*%
X69500000Y92250000D03*
X68550000Y92250000D03*
X67600000Y92250000D03*
X67600000Y89750000D03*
X69500000Y89750000D03*
%TD*%
D12*
%TO.C,mouse-bite-2mm-slot*%
X77850000Y2150000D03*
X79350000Y2150000D03*
X77850000Y2900000D03*
X79350000Y2900000D03*
X77850000Y3650000D03*
X79350000Y3650000D03*
%TD*%
D34*
%TO.C,X1101*%
X63800000Y95425000D03*
X61700000Y95425000D03*
X61700000Y93775000D03*
X63800000Y93775000D03*
%TD*%
D35*
%TO.C,C508*%
X38830016Y26675889D03*
X37943092Y26308513D03*
%TD*%
D36*
%TO.C,R1101*%
X63660000Y86300000D03*
X62640000Y86300000D03*
%TD*%
D37*
%TO.C,C1101*%
X60000000Y96380000D03*
X60000000Y95420000D03*
%TD*%
D38*
%TO.C,D507*%
X38938973Y22148572D03*
D39*
X37950000Y21550750D03*
X40650000Y21550750D03*
D40*
X39658892Y22147415D03*
%TD*%
D41*
%TO.C,FID102*%
X82100000Y100400000D03*
%TD*%
D42*
%TO.C,D509*%
X37503931Y16295783D03*
D43*
X36348545Y16272541D03*
X38686813Y14922541D03*
D44*
X38126821Y15934822D03*
%TD*%
D12*
%TO.C,mouse-bite-2mm-slot1*%
X5250000Y74900000D03*
X6750000Y74900000D03*
X5250000Y75650000D03*
X6750000Y75650000D03*
X5250000Y76400000D03*
X6750000Y76400000D03*
%TD*%
D16*
%TO.C,H1301*%
X60450000Y10800000D03*
%TD*%
D45*
%TO.C,U1201*%
X71200000Y65200000D03*
D46*
X74550000Y69825000D03*
X72950000Y69825000D03*
X70050000Y69825000D03*
X68450000Y69825000D03*
X66850000Y69825000D03*
X66850000Y60575000D03*
X68450000Y60575000D03*
X70050000Y60575000D03*
X72950000Y60575000D03*
X74550000Y60575000D03*
%TD*%
D14*
%TO.C,C1108*%
X73500000Y93925000D03*
X72540000Y93925000D03*
%TD*%
D12*
%TO.C,mouse-bite-2mm-slot3*%
X47850000Y64450000D03*
X49350000Y64450000D03*
X47850000Y65200000D03*
X49350000Y65200000D03*
X47850000Y65950000D03*
X49350000Y65950000D03*
%TD*%
D47*
%TO.C,C526*%
X22524110Y33430017D03*
X22891486Y32543093D03*
%TD*%
D12*
%TO.C,mouse-bite-2mm-slot*%
X5250000Y92100000D03*
X6750000Y92100000D03*
X5250000Y92850000D03*
X6750000Y92850000D03*
X5250000Y93600000D03*
X6750000Y93600000D03*
%TD*%
D16*
%TO.C,H105*%
X11260000Y10860000D03*
%TD*%
D48*
%TO.C,D517*%
X17344640Y15865244D03*
D49*
X17902204Y16877459D03*
X15563936Y15527459D03*
D50*
X16720593Y15506286D03*
%TD*%
D14*
%TO.C,C1206*%
X64035000Y61975000D03*
X63075000Y61975000D03*
%TD*%
D51*
%TO.C,D519*%
X15661027Y21651428D03*
D52*
X16650000Y22249250D03*
X13950000Y22249250D03*
D53*
X14941108Y21652585D03*
%TD*%
D41*
%TO.C,FID107*%
X2500000Y2450000D03*
%TD*%
D54*
%TO.C,D502*%
X30739371Y33775500D03*
D55*
X30417884Y34885502D03*
X29719073Y32277503D03*
D56*
X30551924Y33080411D03*
%TD*%
D57*
%TO.C,D524*%
X24340831Y33904170D03*
D58*
X23507416Y34704717D03*
X24206227Y32096718D03*
D59*
X24526044Y33208483D03*
%TD*%
D60*
%TO.C,J301*%
X24410000Y4905000D03*
X30190000Y4905000D03*
D61*
X24100000Y5980000D03*
X24900000Y5980000D03*
D62*
X26050000Y5980000D03*
X27050000Y5980000D03*
X27550000Y5980000D03*
X28550000Y5980000D03*
D61*
X30500000Y5980000D03*
X29700000Y5980000D03*
D62*
X29050000Y5980000D03*
X28050000Y5980000D03*
X26550000Y5980000D03*
X25550000Y5980000D03*
D63*
X22980000Y5405000D03*
X31620000Y5405000D03*
D64*
X22980000Y1225000D03*
X31620000Y1225000D03*
%TD*%
D15*
%TO.C,TP1102*%
X59550000Y92850000D03*
%TD*%
%TO.C,TP119*%
X25400000Y64150000D03*
%TD*%
D14*
%TO.C,C1107*%
X73500000Y95000000D03*
X72540000Y95000000D03*
%TD*%
%TO.C,C1109*%
X73500000Y88125000D03*
X72540000Y88125000D03*
%TD*%
D12*
%TO.C,mouse-bite-2mm-slot4*%
X5250000Y14900000D03*
X6750000Y14900000D03*
X5250000Y15650000D03*
X6750000Y15650000D03*
X5250000Y16400000D03*
X6750000Y16400000D03*
%TD*%
D15*
%TO.C,TP111*%
X14700000Y39800000D03*
%TD*%
D12*
%TO.C,mouse-bite-2mm-slot3*%
X5250000Y34900000D03*
X6750000Y34900000D03*
X5250000Y35650000D03*
X6750000Y35650000D03*
X5250000Y36400000D03*
X6750000Y36400000D03*
%TD*%
%TO.C,mouse-bite-2mm-slot3*%
X47850000Y39800000D03*
X49350000Y39800000D03*
X47850000Y40550000D03*
X49350000Y40550000D03*
X47850000Y41300000D03*
X49350000Y41300000D03*
%TD*%
D65*
%TO.C,U1202*%
X62425000Y66225000D03*
X63075000Y66225000D03*
X63725000Y66225000D03*
X64375000Y66225000D03*
X64375000Y64175000D03*
X63725000Y64175000D03*
X63075000Y64175000D03*
X62425000Y64175000D03*
%TD*%
D15*
%TO.C,TP118*%
X27400000Y63500000D03*
%TD*%
D66*
%TO.C,C506*%
X34897342Y31801049D03*
X34312932Y31039431D03*
%TD*%
D67*
%TO.C,C509*%
X38721444Y23403663D03*
X39673230Y23528967D03*
%TD*%
D68*
%TO.C,D508*%
X39175499Y18460629D03*
D69*
X40285501Y18782116D03*
X37677502Y19480927D03*
D70*
X38480410Y18648076D03*
%TD*%
D33*
%TO.C,U1103*%
X73500000Y92250000D03*
X72550000Y92250000D03*
X71600000Y92250000D03*
X71600000Y89750000D03*
X73500000Y89750000D03*
%TD*%
D16*
%TO.C,H102*%
X43340000Y98140000D03*
%TD*%
D71*
%TO.C,C518*%
X19702658Y11998952D03*
X20287068Y12760570D03*
%TD*%
D72*
%TO.C,D511*%
X33334756Y11944641D03*
D73*
X32322541Y12502205D03*
X33672541Y10163937D03*
D74*
X33693714Y11320594D03*
%TD*%
D16*
%TO.C,H101*%
X11260000Y98140000D03*
%TD*%
D15*
%TO.C,TP1104*%
X63200000Y97350000D03*
%TD*%
D75*
%TO.C,J1304*%
X56375000Y11780000D03*
D76*
X56375000Y14320000D03*
X56375000Y16860000D03*
X56375000Y19400000D03*
X56375000Y21940000D03*
X56375000Y24480000D03*
X56375000Y27020000D03*
X56375000Y29560000D03*
X56375000Y32100000D03*
X56375000Y34640000D03*
X56375000Y37180000D03*
X56375000Y39720000D03*
X56375000Y42260000D03*
X56375000Y44800000D03*
X56375000Y47340000D03*
%TD*%
D15*
%TO.C,TP1302*%
X60425000Y42550000D03*
%TD*%
D77*
%TO.C,D501*%
X27051428Y33538973D03*
D78*
X27649250Y32550000D03*
X27649250Y35250000D03*
D79*
X27052585Y34258892D03*
%TD*%
D23*
%TO.C,J1303*%
X72932000Y19070000D03*
X72932000Y40030000D03*
D80*
X74647000Y20660000D03*
X71217000Y20660000D03*
X74647000Y21930000D03*
X71217000Y21930000D03*
X74647000Y23200000D03*
X71217000Y23200000D03*
X74647000Y24470000D03*
X71217000Y24470000D03*
X74647000Y25740000D03*
X71217000Y25740000D03*
X74647000Y27010000D03*
X71217000Y27010000D03*
X74647000Y28280000D03*
X71217000Y28280000D03*
X74647000Y29550000D03*
X71217000Y29550000D03*
X74647000Y30820000D03*
X71217000Y30820000D03*
X74647000Y32090000D03*
X71217000Y32090000D03*
X74647000Y33360000D03*
X71217000Y33360000D03*
X74647000Y34630000D03*
X71217000Y34630000D03*
X74647000Y35900000D03*
X71217000Y35900000D03*
X74647000Y37170000D03*
X71217000Y37170000D03*
X74647000Y38440000D03*
X71217000Y38440000D03*
%TD*%
D81*
%TO.C,D503*%
X32904217Y32103932D03*
D82*
X32927459Y30948546D03*
X34277459Y33286814D03*
D83*
X33265178Y32726822D03*
%TD*%
D16*
%TO.C,H106*%
X11260000Y34634000D03*
%TD*%
D84*
%TO.C,C525*%
X20287067Y31039432D03*
X19702657Y31801050D03*
%TD*%
D15*
%TO.C,TP115*%
X31500000Y63400000D03*
%TD*%
D12*
%TO.C,mouse-bite-2mm-slot*%
X77850000Y64450000D03*
X79350000Y64450000D03*
X77850000Y65200000D03*
X79350000Y65200000D03*
X77850000Y65950000D03*
X79350000Y65950000D03*
%TD*%
D85*
%TO.C,C517*%
X22891486Y11256909D03*
X22524110Y10369985D03*
%TD*%
D15*
%TO.C,TP101*%
X37000000Y63100000D03*
%TD*%
D86*
%TO.C,C507*%
X36439431Y28912933D03*
X37201049Y29497343D03*
%TD*%
D16*
%TO.C,H103*%
X43340000Y34634000D03*
%TD*%
D87*
%TO.C,E501*%
X29800000Y14900000D03*
X24800000Y14900000D03*
X29800000Y29400000D03*
X24800000Y29400000D03*
X27300000Y29400000D03*
D88*
X33000000Y21900000D03*
X21600000Y21900000D03*
%TD*%
D89*
%TO.C,R1201*%
X58800000Y65430000D03*
X58800000Y64410000D03*
%TD*%
D90*
%TO.C,C514*%
X32075889Y10369984D03*
X31708513Y11256908D03*
%TD*%
D91*
%TO.C,C519*%
X18160568Y14887068D03*
X17398950Y14302658D03*
%TD*%
D16*
%TO.C,H1201*%
X60750000Y74100000D03*
%TD*%
D14*
%TO.C,C1104*%
X69500000Y88125000D03*
X68540000Y88125000D03*
%TD*%
D12*
%TO.C,mouse-bite-2mm-slot*%
X77850000Y28800000D03*
X79350000Y28800000D03*
X77850000Y29550000D03*
X79350000Y29550000D03*
X77850000Y30300000D03*
X79350000Y30300000D03*
%TD*%
D92*
%TO.C,C524*%
X17398951Y29497342D03*
X18160569Y28912932D03*
%TD*%
D15*
%TO.C,TP122*%
X26300000Y60600000D03*
%TD*%
D93*
%TO.C,C521*%
X15878555Y20396338D03*
X14926769Y20271034D03*
%TD*%
D94*
%TO.C,D523*%
X21265243Y31855360D03*
D95*
X22277458Y31297796D03*
X20927458Y33636064D03*
D96*
X20906285Y32479407D03*
%TD*%
D15*
%TO.C,TP116*%
X27400000Y66000000D03*
%TD*%
D97*
%TO.C,D516*%
X18383666Y13335201D03*
D98*
X18107081Y12213168D03*
X20016269Y14122356D03*
D99*
X18893544Y13843443D03*
%TD*%
D15*
%TO.C,TP108*%
X10300000Y41700000D03*
%TD*%
D23*
%TO.C,J1201*%
X54268000Y75680000D03*
X54268000Y54720000D03*
D24*
X52553000Y74090000D03*
X55983000Y74090000D03*
X52553000Y72820000D03*
X55983000Y72820000D03*
X52553000Y71550000D03*
X55983000Y71550000D03*
X52553000Y70280000D03*
X55983000Y70280000D03*
X52553000Y69010000D03*
X55983000Y69010000D03*
X52553000Y67740000D03*
X55983000Y67740000D03*
X52553000Y66470000D03*
X55983000Y66470000D03*
X52553000Y65200000D03*
X55983000Y65200000D03*
X52553000Y63930000D03*
X55983000Y63930000D03*
X52553000Y62660000D03*
X55983000Y62660000D03*
X52553000Y61390000D03*
X55983000Y61390000D03*
X52553000Y60120000D03*
X55983000Y60120000D03*
X52553000Y58850000D03*
X55983000Y58850000D03*
X52553000Y57580000D03*
X55983000Y57580000D03*
X52553000Y56310000D03*
X55983000Y56310000D03*
%TD*%
D12*
%TO.C,mouse-bite-2mm-slot*%
X47850000Y17800000D03*
X49350000Y17800000D03*
X47850000Y18550000D03*
X49350000Y18550000D03*
X47850000Y19300000D03*
X49350000Y19300000D03*
%TD*%
D15*
%TO.C,TP109*%
X11200000Y39500000D03*
%TD*%
D12*
%TO.C,mouse-bite-2mm-slot*%
X77850000Y90250000D03*
X79350000Y90250000D03*
X77850000Y91000000D03*
X79350000Y91000000D03*
X77850000Y91750000D03*
X79350000Y91750000D03*
%TD*%
D36*
%TO.C,R1103*%
X61060000Y85000000D03*
X60040000Y85000000D03*
%TD*%
D100*
%TO.C,C1205*%
X62115000Y62900000D03*
X63075000Y62900000D03*
%TD*%
D12*
%TO.C,mouse-bite-2mm-slot3*%
X47850000Y90250000D03*
X49350000Y90250000D03*
X47850000Y91000000D03*
X49350000Y91000000D03*
X47850000Y91750000D03*
X49350000Y91750000D03*
%TD*%
D101*
%TO.C,C516*%
X25671033Y9526765D03*
X25796339Y10478559D03*
%TD*%
D15*
%TO.C,TP1202*%
X61350000Y70200000D03*
%TD*%
D102*
%TO.C,D512*%
X30259168Y9895831D03*
D103*
X31092583Y9095284D03*
X30393772Y11703283D03*
D104*
X30073955Y10591518D03*
%TD*%
D105*
%TO.C,D505*%
X37255359Y27934756D03*
D106*
X36697795Y26922541D03*
X39036063Y28272541D03*
D107*
X37879406Y28293714D03*
%TD*%
D12*
%TO.C,mouse-bite-2mm-slot3*%
X57425000Y51550000D03*
X57425000Y53050000D03*
X56675000Y51550000D03*
X56675000Y53050000D03*
X55925000Y51550000D03*
X55925000Y53050000D03*
%TD*%
D108*
%TO.C,C520*%
X15769983Y17124111D03*
X16656907Y17491487D03*
%TD*%
D15*
%TO.C,TP110*%
X13300000Y37900000D03*
%TD*%
D109*
%TO.C,C511*%
X37943092Y17491487D03*
X38830016Y17124111D03*
%TD*%
D15*
%TO.C,TP120*%
X18200000Y64100000D03*
%TD*%
%TO.C,TP1301*%
X66608528Y20660000D03*
%TD*%
D110*
%TO.C,D504*%
X36216333Y30464800D03*
D111*
X36492918Y31586833D03*
X34583730Y29677645D03*
D112*
X35706455Y29956558D03*
%TD*%
D41*
%TO.C,FID101*%
X2500000Y100350000D03*
%TD*%
D113*
%TO.C,D515*%
X21695783Y11696069D03*
D114*
X21672541Y12851455D03*
X20322541Y10513187D03*
D115*
X21334822Y11073179D03*
%TD*%
D16*
%TO.C,H1202*%
X60750000Y56300000D03*
%TD*%
D116*
%TO.C,C510*%
X39673235Y20271033D03*
X38721441Y20396339D03*
%TD*%
D117*
%TO.C,C512*%
X37201048Y14302658D03*
X36439430Y14887068D03*
%TD*%
D118*
%TO.C,D518*%
X15295830Y18940832D03*
D119*
X14495283Y18107417D03*
X17103282Y18806228D03*
D120*
X15991517Y19126045D03*
%TD*%
D121*
%TO.C,D506*%
X39304169Y24859169D03*
D122*
X40104716Y25692584D03*
X37496717Y24993773D03*
D123*
X38608482Y24673956D03*
%TD*%
D15*
%TO.C,TP107*%
X10700000Y16400000D03*
%TD*%
D124*
%TO.C,C515*%
X28803662Y10478556D03*
X28928966Y9526770D03*
%TD*%
D125*
%TO.C,D521*%
X17096068Y27504217D03*
D126*
X18251454Y27527459D03*
X15913186Y28877459D03*
D127*
X16473178Y27865178D03*
%TD*%
D15*
%TO.C,TP1103*%
X71100000Y86325000D03*
%TD*%
D41*
%TO.C,FID105*%
X45600000Y2000000D03*
%TD*%
D14*
%TO.C,C1203*%
X70450000Y59000000D03*
X69490000Y59000000D03*
%TD*%
D128*
%TO.C,C522*%
X14926765Y23528967D03*
X15878559Y23403661D03*
%TD*%
D16*
%TO.C,H104*%
X43340000Y10860000D03*
%TD*%
D129*
%TO.C,C523*%
X16656908Y26308514D03*
X15769984Y26675890D03*
%TD*%
D14*
%TO.C,C1105*%
X69500000Y87000000D03*
X68540000Y87000000D03*
%TD*%
D130*
%TO.C,C504*%
X28928966Y34273231D03*
X28803662Y33321445D03*
%TD*%
D131*
%TO.C,D513*%
X27548572Y10261027D03*
D132*
X26950750Y11250000D03*
X26950750Y8550000D03*
D133*
X27547415Y9541108D03*
%TD*%
D14*
%TO.C,C1103*%
X69500000Y93925000D03*
X68540000Y93925000D03*
%TD*%
D12*
%TO.C,mouse-bite-2mm-slot2*%
X5250000Y54900000D03*
X6750000Y54900000D03*
X5250000Y55650000D03*
X6750000Y55650000D03*
X5250000Y56400000D03*
X6750000Y56400000D03*
%TD*%
D36*
%TO.C,R502*%
X28670000Y36900000D03*
X27650000Y36900000D03*
%TD*%
D41*
%TO.C,FID104*%
X9000000Y100900000D03*
%TD*%
D36*
%TO.C,R1102*%
X59860000Y86300000D03*
X58840000Y86300000D03*
%TD*%
D15*
%TO.C,TP1203*%
X63350000Y70200000D03*
%TD*%
D75*
%TO.C,J1302*%
X60425000Y19400000D03*
D76*
X60425000Y21940000D03*
X60425000Y24480000D03*
X60425000Y27020000D03*
X60425000Y29560000D03*
X60425000Y32100000D03*
X60425000Y34640000D03*
X60425000Y37180000D03*
X60425000Y39720000D03*
%TD*%
D14*
%TO.C,C1110*%
X73500000Y87000000D03*
X72540000Y87000000D03*
%TD*%
D100*
%TO.C,C1201*%
X74220000Y59000000D03*
X75180000Y59000000D03*
%TD*%
D14*
%TO.C,C1102*%
X69500000Y95000000D03*
X68540000Y95000000D03*
%TD*%
D15*
%TO.C,TP112*%
X29600000Y71700000D03*
%TD*%
D134*
%TO.C,D522*%
X18735200Y30816334D03*
D135*
X17613167Y31092919D03*
X19522355Y29183731D03*
D136*
X19243442Y30306456D03*
%TD*%
D137*
%TO.C,M601*%
X39800000Y2500000D03*
%TD*%
D138*
%TO.C,J901*%
X12200000Y51200000D03*
X12200000Y59200000D03*
%TD*%
D23*
%TO.C,J101*%
X37780000Y99200000D03*
X16820000Y99200000D03*
%TD*%
D16*
%TO.C,H1102*%
X60750000Y82100000D03*
%TD*%
%TO.C,H1101*%
X60750000Y99900000D03*
%TD*%
M02*
