%TF.GenerationSoftware,KiCad,Pcbnew,8.0.3*%
%TF.CreationDate,2024-06-12T08:46:35+02:00*%
%TF.ProjectId,EVT-PCB,4556542d-5043-4422-9e6b-696361645f70,rev?*%
%TF.SameCoordinates,PX3d6aa80PY9402a00*%
%TF.FileFunction,Paste,Top*%
%TF.FilePolarity,Positive*%
%FSLAX46Y46*%
G04 Gerber Fmt 4.6, Leading zero omitted, Abs format (unit mm)*
G04 Created by KiCad (PCBNEW 8.0.3) date 2024-06-12 08:46:35*
%MOMM*%
%LPD*%
G01*
G04 APERTURE LIST*
G04 Aperture macros list*
%AMRoundRect*
0 Rectangle with rounded corners*
0 $1 Rounding radius*
0 $2 $3 $4 $5 $6 $7 $8 $9 X,Y pos of 4 corners*
0 Add a 4 corners polygon primitive as box body*
4,1,4,$2,$3,$4,$5,$6,$7,$8,$9,$2,$3,0*
0 Add four circle primitives for the rounded corners*
1,1,$1+$1,$2,$3*
1,1,$1+$1,$4,$5*
1,1,$1+$1,$6,$7*
1,1,$1+$1,$8,$9*
0 Add four rect primitives between the rounded corners*
20,1,$1+$1,$2,$3,$4,$5,0*
20,1,$1+$1,$4,$5,$6,$7,0*
20,1,$1+$1,$6,$7,$8,$9,0*
20,1,$1+$1,$8,$9,$2,$3,0*%
%AMRotRect*
0 Rectangle, with rotation*
0 The origin of the aperture is its center*
0 $1 length*
0 $2 width*
0 $3 Rotation angle, in degrees counterclockwise*
0 Add horizontal line*
21,1,$1,$2,0,0,$3*%
%AMFreePoly0*
4,1,7,0.787400,-0.304800,0.101600,-0.304800,0.101601,-1.269990,-0.304800,-1.269990,-0.304800,0.203200,0.787400,0.203200,0.787400,-0.304800,0.787400,-0.304800,$1*%
%AMFreePoly1*
4,1,7,0.304800,-1.269990,-0.101601,-1.269990,-0.101600,-0.304800,-0.787400,-0.304800,-0.787400,0.203200,0.304800,0.203200,0.304800,-1.269990,0.304800,-1.269990,$1*%
G04 Aperture macros list end*
%ADD10R,1.900000X1.100000*%
%ADD11R,2.300000X0.700000*%
%ADD12RoundRect,0.218750X0.256250X-0.218750X0.256250X0.218750X-0.256250X0.218750X-0.256250X-0.218750X0*%
%ADD13RoundRect,0.140000X0.140000X0.170000X-0.140000X0.170000X-0.140000X-0.170000X0.140000X-0.170000X0*%
%ADD14FreePoly0,45.000000*%
%ADD15RotRect,0.558800X0.406400X135.000000*%
%ADD16FreePoly1,225.000000*%
%ADD17FreePoly0,345.000000*%
%ADD18RotRect,0.558800X0.406400X75.000000*%
%ADD19FreePoly1,165.000000*%
%ADD20R,2.920000X0.740000*%
%ADD21FreePoly0,255.000000*%
%ADD22RotRect,0.558800X0.406400X345.000000*%
%ADD23FreePoly1,75.000000*%
%ADD24RoundRect,0.140000X0.186819X-0.116613X0.150272X0.160992X-0.186819X0.116613X-0.150272X-0.160992X0*%
%ADD25R,1.346200X0.533400*%
%ADD26R,1.200000X0.600000*%
%ADD27RoundRect,0.140000X-0.220097X0.007580X-0.049643X-0.214559X0.220097X-0.007580X0.049643X0.214559X0*%
%ADD28RoundRect,0.140000X0.103484X-0.194399X0.210635X0.064287X-0.103484X0.194399X-0.210635X-0.064287X0*%
%ADD29R,0.600000X1.200000*%
%ADD30R,1.300000X1.100000*%
%ADD31RoundRect,0.140000X0.064287X0.210635X-0.194399X0.103484X-0.064287X-0.210635X0.194399X-0.103484X0*%
%ADD32RoundRect,0.135000X0.135000X0.185000X-0.135000X0.185000X-0.135000X-0.185000X0.135000X-0.185000X0*%
%ADD33RoundRect,0.140000X-0.170000X0.140000X-0.170000X-0.140000X0.170000X-0.140000X0.170000X0.140000X0*%
%ADD34FreePoly0,270.000000*%
%ADD35R,0.558800X0.406400*%
%ADD36FreePoly1,90.000000*%
%ADD37FreePoly0,240.000000*%
%ADD38RotRect,0.558800X0.406400X330.000000*%
%ADD39FreePoly1,60.000000*%
%ADD40R,1.000000X1.000000*%
%ADD41RoundRect,0.140000X-0.210635X0.064287X-0.103484X-0.194399X0.210635X-0.064287X0.103484X0.194399X0*%
%ADD42FreePoly0,120.000000*%
%ADD43RotRect,0.558800X0.406400X210.000000*%
%ADD44FreePoly1,300.000000*%
%ADD45FreePoly0,90.000000*%
%ADD46FreePoly1,270.000000*%
%ADD47FreePoly0,165.000000*%
%ADD48RotRect,0.558800X0.406400X255.000000*%
%ADD49FreePoly1,345.000000*%
%ADD50FreePoly0,195.000000*%
%ADD51RotRect,0.558800X0.406400X285.000000*%
%ADD52FreePoly1,15.000000*%
%ADD53R,0.600000X1.150000*%
%ADD54R,0.300000X1.150000*%
%ADD55R,0.350000X0.500000*%
%ADD56RoundRect,0.140000X-0.049643X0.214559X-0.220097X-0.007580X0.049643X-0.214559X0.220097X0.007580X0*%
%ADD57RoundRect,0.140000X-0.116613X-0.186819X0.160992X-0.150272X0.116613X0.186819X-0.160992X0.150272X0*%
%ADD58FreePoly0,75.000000*%
%ADD59RotRect,0.558800X0.406400X165.000000*%
%ADD60FreePoly1,255.000000*%
%ADD61RoundRect,0.140000X0.049643X-0.214559X0.220097X0.007580X-0.049643X0.214559X-0.220097X-0.007580X0*%
%ADD62FreePoly0,210.000000*%
%ADD63RotRect,0.558800X0.406400X300.000000*%
%ADD64FreePoly1,30.000000*%
%ADD65FreePoly0,0.000000*%
%ADD66R,0.406400X0.558800*%
%ADD67FreePoly1,180.000000*%
%ADD68FreePoly0,330.000000*%
%ADD69RotRect,0.558800X0.406400X60.000000*%
%ADD70FreePoly1,150.000000*%
%ADD71RoundRect,0.140000X0.220097X-0.007580X0.049643X0.214559X-0.220097X0.007580X-0.049643X-0.214559X0*%
%ADD72RoundRect,0.140000X-0.103484X0.194399X-0.210635X-0.064287X0.103484X-0.194399X0.210635X0.064287X0*%
%ADD73RoundRect,0.140000X-0.007580X-0.220097X0.214559X-0.049643X0.007580X0.220097X-0.214559X0.049643X0*%
%ADD74RoundRect,0.135000X-0.185000X0.135000X-0.185000X-0.135000X0.185000X-0.135000X0.185000X0.135000X0*%
%ADD75RoundRect,0.140000X0.210635X-0.064287X0.103484X0.194399X-0.210635X0.064287X-0.103484X-0.194399X0*%
%ADD76RoundRect,0.140000X0.007580X0.220097X-0.214559X0.049643X-0.007580X-0.220097X0.214559X-0.049643X0*%
%ADD77RoundRect,0.140000X-0.214559X-0.049643X0.007580X-0.220097X0.214559X0.049643X-0.007580X0.220097X0*%
%ADD78RoundRect,0.140000X0.116613X0.186819X-0.160992X0.150272X-0.116613X-0.186819X0.160992X-0.150272X0*%
%ADD79FreePoly0,30.000000*%
%ADD80RotRect,0.558800X0.406400X120.000000*%
%ADD81FreePoly1,210.000000*%
%ADD82FreePoly0,315.000000*%
%ADD83RotRect,0.558800X0.406400X45.000000*%
%ADD84FreePoly1,135.000000*%
%ADD85RoundRect,0.140000X-0.140000X-0.170000X0.140000X-0.170000X0.140000X0.170000X-0.140000X0.170000X0*%
%ADD86RoundRect,0.140000X0.150272X-0.160992X0.186819X0.116613X-0.150272X0.160992X-0.186819X-0.116613X0*%
%ADD87FreePoly0,15.000000*%
%ADD88RotRect,0.558800X0.406400X105.000000*%
%ADD89FreePoly1,195.000000*%
%ADD90FreePoly0,300.000000*%
%ADD91RotRect,0.558800X0.406400X30.000000*%
%ADD92FreePoly1,120.000000*%
%ADD93RoundRect,0.140000X-0.064287X-0.210635X0.194399X-0.103484X0.064287X0.210635X-0.194399X0.103484X0*%
%ADD94RoundRect,0.140000X-0.194399X-0.103484X0.064287X-0.210635X0.194399X0.103484X-0.064287X0.210635X0*%
%ADD95FreePoly0,135.000000*%
%ADD96RotRect,0.558800X0.406400X225.000000*%
%ADD97FreePoly1,315.000000*%
%ADD98FreePoly0,150.000000*%
%ADD99RotRect,0.558800X0.406400X240.000000*%
%ADD100FreePoly1,330.000000*%
%ADD101RoundRect,0.140000X0.160992X0.150272X-0.116613X0.186819X-0.160992X-0.150272X0.116613X-0.186819X0*%
%ADD102RoundRect,0.140000X0.214559X0.049643X-0.007580X0.220097X-0.214559X-0.049643X0.007580X-0.220097X0*%
%ADD103FreePoly0,285.000000*%
%ADD104RotRect,0.558800X0.406400X15.000000*%
%ADD105FreePoly1,105.000000*%
%ADD106FreePoly0,105.000000*%
%ADD107RotRect,0.558800X0.406400X195.000000*%
%ADD108FreePoly1,285.000000*%
%ADD109RoundRect,0.140000X-0.186819X0.116613X-0.150272X-0.160992X0.186819X-0.116613X0.150272X0.160992X0*%
%ADD110FreePoly0,60.000000*%
%ADD111RotRect,0.558800X0.406400X150.000000*%
%ADD112FreePoly1,240.000000*%
%ADD113RoundRect,0.140000X-0.160992X-0.150272X0.116613X-0.186819X0.160992X0.150272X-0.116613X0.186819X0*%
%ADD114RoundRect,0.140000X0.194399X0.103484X-0.064287X0.210635X-0.194399X-0.103484X0.064287X-0.210635X0*%
%ADD115RoundRect,0.140000X-0.150272X0.160992X-0.186819X-0.116613X0.150272X-0.160992X0.186819X0.116613X0*%
%ADD116FreePoly0,180.000000*%
%ADD117FreePoly1,0.000000*%
%ADD118FreePoly0,225.000000*%
%ADD119RotRect,0.558800X0.406400X315.000000*%
%ADD120FreePoly1,45.000000*%
G04 APERTURE END LIST*
D10*
%TO.C,J401*%
X38700000Y43000000D03*
X38700000Y37600000D03*
D11*
X35200000Y39550000D03*
X35200000Y41050000D03*
%TD*%
D12*
%TO.C,D1201*%
X60250000Y64412500D03*
X60250000Y65987500D03*
%TD*%
D13*
%TO.C,C1202*%
X73330000Y59000000D03*
X72370000Y59000000D03*
%TD*%
D14*
%TO.C,D510*%
X35864799Y12983667D03*
D15*
X36986832Y12707082D03*
X35077644Y14616270D03*
D16*
X35356557Y13493545D03*
%TD*%
D17*
%TO.C,D514*%
X23860628Y10024501D03*
D18*
X24182115Y8914499D03*
X24880926Y11522498D03*
D19*
X24048075Y10719590D03*
%TD*%
D20*
%TO.C,J1101*%
X52553000Y99890000D03*
X55983000Y99890000D03*
X52553000Y98620000D03*
X55983000Y98620000D03*
X52553000Y97350000D03*
X55983000Y97350000D03*
X52553000Y96080000D03*
X55983000Y96080000D03*
X52553000Y94810000D03*
X55983000Y94810000D03*
X52553000Y93540000D03*
X55983000Y93540000D03*
X52553000Y92270000D03*
X55983000Y92270000D03*
X52553000Y91000000D03*
X55983000Y91000000D03*
X52553000Y89730000D03*
X55983000Y89730000D03*
X52553000Y88460000D03*
X55983000Y88460000D03*
X52553000Y87190000D03*
X55983000Y87190000D03*
X52553000Y85920000D03*
X55983000Y85920000D03*
X52553000Y84650000D03*
X55983000Y84650000D03*
X52553000Y83380000D03*
X55983000Y83380000D03*
X52553000Y82110000D03*
X55983000Y82110000D03*
%TD*%
D21*
%TO.C,D520*%
X15424500Y25339372D03*
D22*
X14314498Y25017885D03*
X16922497Y24319074D03*
D23*
X16119589Y25151925D03*
%TD*%
D24*
%TO.C,C527*%
X25796338Y33321441D03*
X25671032Y34273235D03*
%TD*%
D25*
%TO.C,U1104*%
X60345000Y90570000D03*
X60345000Y89300000D03*
X60345000Y88030000D03*
X64155000Y88030000D03*
X64155000Y89300000D03*
X64155000Y90570000D03*
%TD*%
D13*
%TO.C,C1106*%
X61730000Y86300000D03*
X60770000Y86300000D03*
%TD*%
D26*
%TO.C,D301*%
X17150000Y7250000D03*
X17150000Y8200000D03*
X17150000Y9150000D03*
X14650000Y9150000D03*
X14650000Y8200000D03*
X14650000Y7250000D03*
%TD*%
D27*
%TO.C,C513*%
X34312932Y12760569D03*
X34897342Y11998951D03*
%TD*%
D28*
%TO.C,C505*%
X31708513Y32543093D03*
X32075889Y33430017D03*
%TD*%
D29*
%TO.C,U1101*%
X69500000Y92250000D03*
X68550000Y92250000D03*
X67600000Y92250000D03*
X67600000Y89750000D03*
X69500000Y89750000D03*
%TD*%
D30*
%TO.C,X1101*%
X63800000Y95425000D03*
X61700000Y95425000D03*
X61700000Y93775000D03*
X63800000Y93775000D03*
%TD*%
D31*
%TO.C,C508*%
X38830016Y26675889D03*
X37943092Y26308513D03*
%TD*%
D32*
%TO.C,R1101*%
X63660000Y86300000D03*
X62640000Y86300000D03*
%TD*%
D33*
%TO.C,C1101*%
X60000000Y96380000D03*
X60000000Y95420000D03*
%TD*%
D34*
%TO.C,D507*%
X38938973Y22148572D03*
D35*
X37950000Y21550750D03*
X40650000Y21550750D03*
D36*
X39658892Y22147415D03*
%TD*%
D37*
%TO.C,D509*%
X37503931Y16295783D03*
D38*
X36348545Y16272541D03*
X38686813Y14922541D03*
D39*
X38126821Y15934822D03*
%TD*%
D40*
%TO.C,U1201*%
X74550000Y69825000D03*
X72950000Y69825000D03*
X70050000Y69825000D03*
X68450000Y69825000D03*
X66850000Y69825000D03*
X66850000Y60575000D03*
X68450000Y60575000D03*
X70050000Y60575000D03*
X72950000Y60575000D03*
X74550000Y60575000D03*
%TD*%
D13*
%TO.C,C1108*%
X73500000Y93925000D03*
X72540000Y93925000D03*
%TD*%
D41*
%TO.C,C526*%
X22524110Y33430017D03*
X22891486Y32543093D03*
%TD*%
D42*
%TO.C,D517*%
X17344640Y15865244D03*
D43*
X17902204Y16877459D03*
X15563936Y15527459D03*
D44*
X16720593Y15506286D03*
%TD*%
D13*
%TO.C,C1206*%
X64035000Y61975000D03*
X63075000Y61975000D03*
%TD*%
D45*
%TO.C,D519*%
X15661027Y21651428D03*
D35*
X16650000Y22249250D03*
X13950000Y22249250D03*
D46*
X14941108Y21652585D03*
%TD*%
D47*
%TO.C,D502*%
X30739371Y33775500D03*
D48*
X30417884Y34885502D03*
X29719073Y32277503D03*
D49*
X30551924Y33080411D03*
%TD*%
D50*
%TO.C,D524*%
X24340831Y33904170D03*
D51*
X23507416Y34704717D03*
X24206227Y32096718D03*
D52*
X24526044Y33208483D03*
%TD*%
D53*
%TO.C,J301*%
X24100000Y5980000D03*
X24900000Y5980000D03*
D54*
X26050000Y5980000D03*
X27050000Y5980000D03*
X27550000Y5980000D03*
X28550000Y5980000D03*
D53*
X30500000Y5980000D03*
X29700000Y5980000D03*
D54*
X29050000Y5980000D03*
X28050000Y5980000D03*
X26550000Y5980000D03*
X25550000Y5980000D03*
%TD*%
D13*
%TO.C,C1107*%
X73500000Y95000000D03*
X72540000Y95000000D03*
%TD*%
%TO.C,C1109*%
X73500000Y88125000D03*
X72540000Y88125000D03*
%TD*%
D55*
%TO.C,U1202*%
X62425000Y66225000D03*
X63075000Y66225000D03*
X63725000Y66225000D03*
X64375000Y66225000D03*
X64375000Y64175000D03*
X63725000Y64175000D03*
X63075000Y64175000D03*
X62425000Y64175000D03*
%TD*%
D56*
%TO.C,C506*%
X34897342Y31801049D03*
X34312932Y31039431D03*
%TD*%
D57*
%TO.C,C509*%
X38721444Y23403663D03*
X39673230Y23528967D03*
%TD*%
D58*
%TO.C,D508*%
X39175499Y18460629D03*
D59*
X40285501Y18782116D03*
X37677502Y19480927D03*
D60*
X38480410Y18648076D03*
%TD*%
D29*
%TO.C,U1103*%
X73500000Y92250000D03*
X72550000Y92250000D03*
X71600000Y92250000D03*
X71600000Y89750000D03*
X73500000Y89750000D03*
%TD*%
D61*
%TO.C,C518*%
X19702658Y11998952D03*
X20287068Y12760570D03*
%TD*%
D62*
%TO.C,D511*%
X33334756Y11944641D03*
D63*
X32322541Y12502205D03*
X33672541Y10163937D03*
D64*
X33693714Y11320594D03*
%TD*%
D65*
%TO.C,D501*%
X27051428Y33538973D03*
D66*
X27649250Y32550000D03*
X27649250Y35250000D03*
D67*
X27052585Y34258892D03*
%TD*%
D20*
%TO.C,J1303*%
X74647000Y20660000D03*
X71217000Y20660000D03*
X74647000Y21930000D03*
X71217000Y21930000D03*
X74647000Y23200000D03*
X71217000Y23200000D03*
X74647000Y24470000D03*
X71217000Y24470000D03*
X74647000Y25740000D03*
X71217000Y25740000D03*
X74647000Y27010000D03*
X71217000Y27010000D03*
X74647000Y28280000D03*
X71217000Y28280000D03*
X74647000Y29550000D03*
X71217000Y29550000D03*
X74647000Y30820000D03*
X71217000Y30820000D03*
X74647000Y32090000D03*
X71217000Y32090000D03*
X74647000Y33360000D03*
X71217000Y33360000D03*
X74647000Y34630000D03*
X71217000Y34630000D03*
X74647000Y35900000D03*
X71217000Y35900000D03*
X74647000Y37170000D03*
X71217000Y37170000D03*
X74647000Y38440000D03*
X71217000Y38440000D03*
%TD*%
D68*
%TO.C,D503*%
X32904217Y32103932D03*
D69*
X32927459Y30948546D03*
X34277459Y33286814D03*
D70*
X33265178Y32726822D03*
%TD*%
D71*
%TO.C,C525*%
X20287067Y31039432D03*
X19702657Y31801050D03*
%TD*%
D72*
%TO.C,C517*%
X22891486Y11256909D03*
X22524110Y10369985D03*
%TD*%
D73*
%TO.C,C507*%
X36439431Y28912933D03*
X37201049Y29497343D03*
%TD*%
D74*
%TO.C,R1201*%
X58800000Y65430000D03*
X58800000Y64410000D03*
%TD*%
D75*
%TO.C,C514*%
X32075889Y10369984D03*
X31708513Y11256908D03*
%TD*%
D76*
%TO.C,C519*%
X18160568Y14887068D03*
X17398950Y14302658D03*
%TD*%
D13*
%TO.C,C1104*%
X69500000Y88125000D03*
X68540000Y88125000D03*
%TD*%
D77*
%TO.C,C524*%
X17398951Y29497342D03*
X18160569Y28912932D03*
%TD*%
D78*
%TO.C,C521*%
X15878555Y20396338D03*
X14926769Y20271034D03*
%TD*%
D79*
%TO.C,D523*%
X21265243Y31855360D03*
D80*
X22277458Y31297796D03*
X20927458Y33636064D03*
D81*
X20906285Y32479407D03*
%TD*%
D82*
%TO.C,D516*%
X18383666Y13335201D03*
D83*
X18107081Y12213168D03*
X20016269Y14122356D03*
D84*
X18893544Y13843443D03*
%TD*%
D20*
%TO.C,J1201*%
X52553000Y74090000D03*
X55983000Y74090000D03*
X52553000Y72820000D03*
X55983000Y72820000D03*
X52553000Y71550000D03*
X55983000Y71550000D03*
X52553000Y70280000D03*
X55983000Y70280000D03*
X52553000Y69010000D03*
X55983000Y69010000D03*
X52553000Y67740000D03*
X55983000Y67740000D03*
X52553000Y66470000D03*
X55983000Y66470000D03*
X52553000Y65200000D03*
X55983000Y65200000D03*
X52553000Y63930000D03*
X55983000Y63930000D03*
X52553000Y62660000D03*
X55983000Y62660000D03*
X52553000Y61390000D03*
X55983000Y61390000D03*
X52553000Y60120000D03*
X55983000Y60120000D03*
X52553000Y58850000D03*
X55983000Y58850000D03*
X52553000Y57580000D03*
X55983000Y57580000D03*
X52553000Y56310000D03*
X55983000Y56310000D03*
%TD*%
D32*
%TO.C,R1103*%
X61060000Y85000000D03*
X60040000Y85000000D03*
%TD*%
D85*
%TO.C,C1205*%
X62115000Y62900000D03*
X63075000Y62900000D03*
%TD*%
D86*
%TO.C,C516*%
X25671033Y9526765D03*
X25796339Y10478559D03*
%TD*%
D87*
%TO.C,D512*%
X30259168Y9895831D03*
D88*
X31092583Y9095284D03*
X30393772Y11703283D03*
D89*
X30073955Y10591518D03*
%TD*%
D90*
%TO.C,D505*%
X37255359Y27934756D03*
D91*
X36697795Y26922541D03*
X39036063Y28272541D03*
D92*
X37879406Y28293714D03*
%TD*%
D93*
%TO.C,C520*%
X15769983Y17124111D03*
X16656907Y17491487D03*
%TD*%
D94*
%TO.C,C511*%
X37943092Y17491487D03*
X38830016Y17124111D03*
%TD*%
D95*
%TO.C,D504*%
X36216333Y30464800D03*
D96*
X36492918Y31586833D03*
X34583730Y29677645D03*
D97*
X35706455Y29956558D03*
%TD*%
D98*
%TO.C,D515*%
X21695783Y11696069D03*
D99*
X21672541Y12851455D03*
X20322541Y10513187D03*
D100*
X21334822Y11073179D03*
%TD*%
D101*
%TO.C,C510*%
X39673235Y20271033D03*
X38721441Y20396339D03*
%TD*%
D102*
%TO.C,C512*%
X37201048Y14302658D03*
X36439430Y14887068D03*
%TD*%
D103*
%TO.C,D518*%
X15295830Y18940832D03*
D104*
X14495283Y18107417D03*
X17103282Y18806228D03*
D105*
X15991517Y19126045D03*
%TD*%
D106*
%TO.C,D506*%
X39304169Y24859169D03*
D107*
X40104716Y25692584D03*
X37496717Y24993773D03*
D108*
X38608482Y24673956D03*
%TD*%
D109*
%TO.C,C515*%
X28803662Y10478556D03*
X28928966Y9526770D03*
%TD*%
D110*
%TO.C,D521*%
X17096068Y27504217D03*
D111*
X18251454Y27527459D03*
X15913186Y28877459D03*
D112*
X16473178Y27865178D03*
%TD*%
D13*
%TO.C,C1203*%
X70450000Y59000000D03*
X69490000Y59000000D03*
%TD*%
D113*
%TO.C,C522*%
X14926765Y23528967D03*
X15878559Y23403661D03*
%TD*%
D114*
%TO.C,C523*%
X16656908Y26308514D03*
X15769984Y26675890D03*
%TD*%
D13*
%TO.C,C1105*%
X69500000Y87000000D03*
X68540000Y87000000D03*
%TD*%
D115*
%TO.C,C504*%
X28928966Y34273231D03*
X28803662Y33321445D03*
%TD*%
D116*
%TO.C,D513*%
X27548572Y10261027D03*
D66*
X26950750Y11250000D03*
X26950750Y8550000D03*
D117*
X27547415Y9541108D03*
%TD*%
D13*
%TO.C,C1103*%
X69500000Y93925000D03*
X68540000Y93925000D03*
%TD*%
D32*
%TO.C,R502*%
X28670000Y36900000D03*
X27650000Y36900000D03*
%TD*%
%TO.C,R1102*%
X59860000Y86300000D03*
X58840000Y86300000D03*
%TD*%
D13*
%TO.C,C1110*%
X73500000Y87000000D03*
X72540000Y87000000D03*
%TD*%
D85*
%TO.C,C1201*%
X74220000Y59000000D03*
X75180000Y59000000D03*
%TD*%
D13*
%TO.C,C1102*%
X69500000Y95000000D03*
X68540000Y95000000D03*
%TD*%
D118*
%TO.C,D522*%
X18735200Y30816334D03*
D119*
X17613167Y31092919D03*
X19522355Y29183731D03*
D120*
X19243442Y30306456D03*
%TD*%
M02*
