%TF.GenerationSoftware,KiCad,Pcbnew,8.0.3*%
%TF.CreationDate,2024-06-12T08:46:35+02:00*%
%TF.ProjectId,EVT-PCB,4556542d-5043-4422-9e6b-696361645f70,rev?*%
%TF.SameCoordinates,PX3d6aa80PY9402a00*%
%TF.FileFunction,Paste,Bot*%
%TF.FilePolarity,Positive*%
%FSLAX46Y46*%
G04 Gerber Fmt 4.6, Leading zero omitted, Abs format (unit mm)*
G04 Created by KiCad (PCBNEW 8.0.3) date 2024-06-12 08:46:35*
%MOMM*%
%LPD*%
G01*
G04 APERTURE LIST*
G04 Aperture macros list*
%AMRoundRect*
0 Rectangle with rounded corners*
0 $1 Rounding radius*
0 $2 $3 $4 $5 $6 $7 $8 $9 X,Y pos of 4 corners*
0 Add a 4 corners polygon primitive as box body*
4,1,4,$2,$3,$4,$5,$6,$7,$8,$9,$2,$3,0*
0 Add four circle primitives for the rounded corners*
1,1,$1+$1,$2,$3*
1,1,$1+$1,$4,$5*
1,1,$1+$1,$6,$7*
1,1,$1+$1,$8,$9*
0 Add four rect primitives between the rounded corners*
20,1,$1+$1,$2,$3,$4,$5,0*
20,1,$1+$1,$4,$5,$6,$7,0*
20,1,$1+$1,$6,$7,$8,$9,0*
20,1,$1+$1,$8,$9,$2,$3,0*%
G04 Aperture macros list end*
%ADD10R,1.300000X2.000000*%
%ADD11R,7.500000X7.500000*%
%ADD12R,1.000000X0.300000*%
%ADD13R,1.250000X1.250000*%
%ADD14R,0.850000X0.300000*%
%ADD15R,0.300000X0.850000*%
%ADD16R,1.100000X1.900000*%
%ADD17R,0.700000X2.300000*%
%ADD18R,0.304800X0.558800*%
%ADD19RoundRect,0.140000X-0.140000X-0.170000X0.140000X-0.170000X0.140000X0.170000X-0.140000X0.170000X0*%
%ADD20RoundRect,0.140000X0.140000X0.170000X-0.140000X0.170000X-0.140000X-0.170000X0.140000X-0.170000X0*%
%ADD21R,0.250000X0.675000*%
%ADD22R,0.575000X0.250000*%
%ADD23RoundRect,0.135000X0.185000X-0.135000X0.185000X0.135000X-0.185000X0.135000X-0.185000X-0.135000X0*%
%ADD24R,0.600000X0.522000*%
%ADD25R,1.600000X0.700000*%
%ADD26R,2.200000X1.200000*%
%ADD27R,1.500000X1.600000*%
%ADD28R,1.800000X1.200000*%
%ADD29R,0.558800X0.304800*%
%ADD30R,0.300000X0.325000*%
%ADD31R,0.613000X0.950000*%
%ADD32RoundRect,0.135000X-0.185000X0.135000X-0.185000X-0.135000X0.185000X-0.135000X0.185000X0.135000X0*%
%ADD33R,0.254000X0.812800*%
%ADD34R,1.828800X1.549400*%
%ADD35RoundRect,0.135000X-0.135000X-0.185000X0.135000X-0.185000X0.135000X0.185000X-0.135000X0.185000X0*%
%ADD36RoundRect,0.135000X0.135000X0.185000X-0.135000X0.185000X-0.135000X-0.185000X0.135000X-0.185000X0*%
%ADD37R,0.812800X0.254000*%
%ADD38R,1.524000X2.286000*%
%ADD39RoundRect,0.140000X0.170000X-0.140000X0.170000X0.140000X-0.170000X0.140000X-0.170000X-0.140000X0*%
%ADD40RoundRect,0.140000X-0.170000X0.140000X-0.170000X-0.140000X0.170000X-0.140000X0.170000X0.140000X0*%
%ADD41R,1.150000X0.550000*%
%ADD42R,1.295400X2.387600*%
%ADD43RoundRect,0.225000X0.250000X-0.225000X0.250000X0.225000X-0.250000X0.225000X-0.250000X-0.225000X0*%
%ADD44R,5.250000X5.250000*%
%ADD45R,0.533400X1.346200*%
%ADD46R,0.740000X2.220000*%
%ADD47R,1.000000X1.800000*%
%ADD48R,1.346200X0.533400*%
%ADD49R,5.000000X2.000000*%
%ADD50R,4.000000X1.700000*%
%ADD51R,0.750000X0.300000*%
%ADD52R,0.900000X1.300000*%
%ADD53RoundRect,0.225000X-0.250000X0.225000X-0.250000X-0.225000X0.250000X-0.225000X0.250000X0.225000X0*%
%ADD54R,0.330200X0.838200*%
%ADD55R,0.457200X0.990600*%
%ADD56R,0.889000X1.498600*%
%ADD57R,1.498600X0.889000*%
%ADD58R,0.990600X0.990600*%
%ADD59R,0.390000X0.450000*%
%ADD60R,0.820000X1.100000*%
%ADD61RoundRect,0.225000X-0.225000X-0.250000X0.225000X-0.250000X0.225000X0.250000X-0.225000X0.250000X0*%
%ADD62R,1.150000X0.600000*%
G04 APERTURE END LIST*
D10*
%TO.C,U1102*%
X56700000Y82950000D03*
D11*
X71700000Y91000000D03*
D10*
X56700000Y99050000D03*
D12*
X54000000Y85050000D03*
X54000000Y85550000D03*
X54000000Y86050000D03*
X54000000Y86550000D03*
X54000000Y87050000D03*
X54000000Y87550000D03*
X54000000Y88050000D03*
X54000000Y88550000D03*
X54000000Y89050000D03*
X54000000Y89550000D03*
X54000000Y90050000D03*
X54000000Y90550000D03*
X54000000Y91050000D03*
X54000000Y91550000D03*
X54000000Y92050000D03*
X54000000Y92550000D03*
X54000000Y93050000D03*
X54000000Y93550000D03*
X54000000Y94050000D03*
X54000000Y94550000D03*
X54000000Y95050000D03*
X54000000Y95550000D03*
X54000000Y96050000D03*
X54000000Y96550000D03*
%TD*%
D13*
%TO.C,U1001*%
X12800000Y42900000D03*
D14*
X11350000Y42150000D03*
X11350000Y42650000D03*
X11350000Y43150000D03*
X11350000Y43650000D03*
D15*
X12050000Y44350000D03*
X12550000Y44350000D03*
X13050000Y44350000D03*
X13550000Y44350000D03*
D14*
X14250000Y43650000D03*
X14250000Y43150000D03*
X14250000Y42650000D03*
X14250000Y42150000D03*
D15*
X13550000Y41450000D03*
X13050000Y41450000D03*
X12550000Y41450000D03*
X12050000Y41450000D03*
%TD*%
D16*
%TO.C,J1001*%
X15900000Y40573000D03*
X21300000Y40573000D03*
D17*
X19350000Y44073000D03*
X17850000Y44073000D03*
%TD*%
D18*
%TO.C,D527*%
X24800000Y17000000D03*
X24104802Y17000000D03*
%TD*%
D19*
%TO.C,C805*%
X41295000Y66225000D03*
X42255000Y66225000D03*
%TD*%
D20*
%TO.C,C1002*%
X13050000Y45800000D03*
X12090000Y45800000D03*
%TD*%
D18*
%TO.C,D201*%
X15347599Y91400000D03*
X14652401Y91400000D03*
%TD*%
%TO.C,D525*%
X29800000Y27350000D03*
X29104802Y27350000D03*
%TD*%
D21*
%TO.C,U801*%
X43950000Y64063000D03*
D22*
X44013000Y63250000D03*
X44013000Y62750000D03*
X44013000Y62250000D03*
X44013000Y61750000D03*
D21*
X43950000Y60937000D03*
X43450000Y60937000D03*
X42950000Y60937000D03*
X42450000Y60937000D03*
X41950000Y60937000D03*
X41450000Y60937000D03*
X40950000Y60937000D03*
X40450000Y60937000D03*
X39950000Y60937000D03*
X39450000Y60937000D03*
D22*
X39387000Y61750000D03*
X39387000Y62250000D03*
X39387000Y62750000D03*
X39387000Y63250000D03*
D21*
X39450000Y64063000D03*
X39950000Y64063000D03*
X40450000Y64063000D03*
X40950000Y64063000D03*
X41450000Y64063000D03*
X41950000Y64063000D03*
X42450000Y64063000D03*
X42950000Y64063000D03*
X43450000Y64063000D03*
%TD*%
D23*
%TO.C,R504*%
X31900000Y28300000D03*
X31900000Y29320000D03*
%TD*%
D24*
%TO.C,M601*%
X40700000Y4574000D03*
X40700000Y3752000D03*
X38900000Y3752000D03*
X38900000Y4574000D03*
X39800000Y4574000D03*
%TD*%
D25*
%TO.C,J901*%
X23200000Y58400000D03*
X23200000Y57300000D03*
X23200000Y56200000D03*
X23200000Y55100000D03*
X23200000Y54000000D03*
X23200000Y52900000D03*
X23200000Y51800000D03*
X23200000Y50700000D03*
X23200000Y49600000D03*
D26*
X12600000Y63900000D03*
X12600000Y48400000D03*
D27*
X22150000Y63000000D03*
D28*
X21900000Y48400000D03*
%TD*%
D29*
%TO.C,D901*%
X25000000Y55097599D03*
X25000000Y54402401D03*
%TD*%
D20*
%TO.C,C503*%
X24930000Y18400000D03*
X23970000Y18400000D03*
%TD*%
D30*
%TO.C,Q301*%
X36450000Y47387000D03*
D31*
X36634000Y48300000D03*
X37566000Y48300000D03*
D30*
X37750000Y49212000D03*
X37100000Y49212000D03*
X37100000Y47387000D03*
X36450000Y49212000D03*
X37750000Y47387000D03*
%TD*%
D32*
%TO.C,R104*%
X34550000Y83670000D03*
X34550000Y82650000D03*
%TD*%
D29*
%TO.C,D904*%
X25000000Y56200000D03*
X25000000Y56895198D03*
%TD*%
D23*
%TO.C,R103*%
X34550000Y80390000D03*
X34550000Y81410000D03*
%TD*%
D33*
%TO.C,U302*%
X41083999Y51097000D03*
X41584000Y51097000D03*
X42084000Y51097000D03*
X42584001Y51097000D03*
X42584001Y48303000D03*
X42084000Y48303000D03*
X41584000Y48303000D03*
X41083999Y48303000D03*
D34*
X41834000Y49700000D03*
%TD*%
D23*
%TO.C,R404*%
X45600000Y39680000D03*
X45600000Y40700000D03*
%TD*%
D35*
%TO.C,R601*%
X39790000Y6300000D03*
X40810000Y6300000D03*
%TD*%
D19*
%TO.C,C801*%
X42450000Y59600000D03*
X43410000Y59600000D03*
%TD*%
D23*
%TO.C,R402*%
X32350000Y43230000D03*
X32350000Y44250000D03*
%TD*%
%TO.C,R110*%
X16650000Y65440000D03*
X16650000Y66460000D03*
%TD*%
D36*
%TO.C,R108*%
X40610000Y70100000D03*
X39590000Y70100000D03*
%TD*%
D23*
%TO.C,R308*%
X36100000Y50390000D03*
X36100000Y51410000D03*
%TD*%
D37*
%TO.C,U402*%
X43697000Y42200001D03*
X43697000Y41699999D03*
X43697000Y41200000D03*
X43697000Y40700001D03*
X43697000Y40199999D03*
X40903000Y40199999D03*
X40903000Y40700001D03*
X40903000Y41200000D03*
X40903000Y41699999D03*
X40903000Y42200001D03*
D38*
X42300000Y41200000D03*
%TD*%
D39*
%TO.C,C302*%
X43900000Y46020000D03*
X43900000Y46980000D03*
%TD*%
D40*
%TO.C,C901*%
X27400000Y55280000D03*
X27400000Y54320000D03*
%TD*%
D23*
%TO.C,R107*%
X36650000Y70090000D03*
X36650000Y71110000D03*
%TD*%
D19*
%TO.C,C705*%
X33020000Y41000000D03*
X33980000Y41000000D03*
%TD*%
D23*
%TO.C,R403*%
X46600000Y40190000D03*
X46600000Y41210000D03*
%TD*%
D41*
%TO.C,D302*%
X34700000Y50400000D03*
X34700000Y49100000D03*
X32700000Y49750000D03*
%TD*%
D20*
%TO.C,C532*%
X41480000Y71200000D03*
X40520000Y71200000D03*
%TD*%
D32*
%TO.C,R407*%
X38400000Y40310000D03*
X38400000Y39290000D03*
%TD*%
D19*
%TO.C,C529*%
X37450000Y81000000D03*
X38410000Y81000000D03*
%TD*%
D20*
%TO.C,C402*%
X43405000Y43700000D03*
X42445000Y43700000D03*
%TD*%
D42*
%TO.C,L301*%
X41586200Y54500000D03*
X44481800Y54500000D03*
%TD*%
D32*
%TO.C,R1001*%
X9900000Y44810000D03*
X9900000Y43790000D03*
%TD*%
D23*
%TO.C,R801*%
X45300000Y60840000D03*
X45300000Y61860000D03*
%TD*%
D20*
%TO.C,C528*%
X40690000Y81150000D03*
X39730000Y81150000D03*
%TD*%
D40*
%TO.C,C303*%
X44300000Y51130000D03*
X44300000Y50170000D03*
%TD*%
D20*
%TO.C,C1001*%
X13050000Y46800000D03*
X12090000Y46800000D03*
%TD*%
%TO.C,C202*%
X15480000Y89000000D03*
X14520000Y89000000D03*
%TD*%
%TO.C,C530*%
X41550000Y82050000D03*
X40590000Y82050000D03*
%TD*%
D43*
%TO.C,C403*%
X35700000Y40025000D03*
X35700000Y41575000D03*
%TD*%
D32*
%TO.C,R201*%
X17025000Y90920000D03*
X17025000Y89900000D03*
%TD*%
D29*
%TO.C,D906*%
X25000000Y57652401D03*
X25000000Y58347599D03*
%TD*%
%TO.C,D202*%
X18350000Y90647599D03*
X18350000Y89952401D03*
%TD*%
D14*
%TO.C,IC501*%
X44350000Y78850000D03*
X44350000Y78350000D03*
X44350000Y77850000D03*
X44350000Y77350000D03*
X44350000Y76850000D03*
X44350000Y76350000D03*
X44350000Y75850000D03*
X44350000Y75350000D03*
X44350000Y74850000D03*
X44350000Y74350000D03*
X44350000Y73850000D03*
X44350000Y73350000D03*
D15*
X43650000Y72650000D03*
X43150000Y72650000D03*
X42650000Y72650000D03*
X42150000Y72650000D03*
X41650000Y72650000D03*
X41150000Y72650000D03*
X40650000Y72650000D03*
X40150000Y72650000D03*
X39650000Y72650000D03*
X39150000Y72650000D03*
X38650000Y72650000D03*
X38150000Y72650000D03*
D14*
X37450000Y73350000D03*
X37450000Y73850000D03*
X37450000Y74350000D03*
X37450000Y74850000D03*
X37450000Y75350000D03*
X37450000Y75850000D03*
X37450000Y76350000D03*
X37450000Y76850000D03*
X37450000Y77350000D03*
X37450000Y77850000D03*
X37450000Y78350000D03*
X37450000Y78850000D03*
D15*
X38150000Y79550000D03*
X38650000Y79550000D03*
X39150000Y79550000D03*
X39650000Y79550000D03*
X40150000Y79550000D03*
X40650000Y79550000D03*
X41150000Y79550000D03*
X41650000Y79550000D03*
X42150000Y79550000D03*
X42650000Y79550000D03*
X43150000Y79550000D03*
X43650000Y79550000D03*
D44*
X40900000Y76100000D03*
%TD*%
D45*
%TO.C,U1203*%
X64520000Y60195000D03*
X63250000Y60195000D03*
X61980000Y60195000D03*
X61980000Y64005000D03*
X63250000Y64005000D03*
X64520000Y64005000D03*
%TD*%
D32*
%TO.C,R101*%
X34150000Y76410000D03*
X34150000Y75390000D03*
%TD*%
D39*
%TO.C,C803*%
X45300000Y62750000D03*
X45300000Y63710000D03*
%TD*%
D32*
%TO.C,R508*%
X31900000Y27380000D03*
X31900000Y26360000D03*
%TD*%
D23*
%TO.C,R505*%
X22800000Y28300000D03*
X22800000Y29320000D03*
%TD*%
D20*
%TO.C,C531*%
X41550000Y83100000D03*
X40590000Y83100000D03*
%TD*%
D32*
%TO.C,R306*%
X33900000Y48010000D03*
X33900000Y46990000D03*
%TD*%
D23*
%TO.C,R301*%
X40310000Y44900000D03*
X40310000Y45920000D03*
%TD*%
D46*
%TO.C,J101*%
X18410000Y97835000D03*
X18410000Y100565000D03*
X19680000Y97835000D03*
X19680000Y100565000D03*
X20950000Y97835000D03*
X20950000Y100565000D03*
X22220000Y97835000D03*
X22220000Y100565000D03*
X23490000Y97835000D03*
X23490000Y100565000D03*
X24760000Y97835000D03*
X24760000Y100565000D03*
X26030000Y97835000D03*
X26030000Y100565000D03*
X27300000Y97835000D03*
X27300000Y100565000D03*
X28570000Y97835000D03*
X28570000Y100565000D03*
X29840000Y97835000D03*
X29840000Y100565000D03*
X31110000Y97835000D03*
X31110000Y100565000D03*
X32380000Y97835000D03*
X32380000Y100565000D03*
X33650000Y97835000D03*
X33650000Y100565000D03*
X34920000Y97835000D03*
X34920000Y100565000D03*
X36190000Y97835000D03*
X36190000Y100565000D03*
%TD*%
D36*
%TO.C,R405*%
X39510000Y41200000D03*
X38490000Y41200000D03*
%TD*%
D39*
%TO.C,C502*%
X45900000Y76070000D03*
X45900000Y77030000D03*
%TD*%
%TO.C,C305*%
X35000000Y47020000D03*
X35000000Y47980000D03*
%TD*%
D47*
%TO.C,X801*%
X43950000Y68100000D03*
X41450000Y68100000D03*
%TD*%
D32*
%TO.C,R507*%
X22800000Y27380000D03*
X22800000Y26360000D03*
%TD*%
D48*
%TO.C,U1301*%
X67375500Y38445000D03*
X67375500Y37175000D03*
X67375500Y35905000D03*
X63565500Y35905000D03*
X63565500Y37175000D03*
X63565500Y38445000D03*
%TD*%
D23*
%TO.C,R901*%
X26300000Y48580000D03*
X26300000Y49600000D03*
%TD*%
D36*
%TO.C,R903*%
X27210000Y56200000D03*
X26190000Y56200000D03*
%TD*%
D29*
%TO.C,D903*%
X25000000Y53647599D03*
X25000000Y52952401D03*
%TD*%
D23*
%TO.C,R102*%
X34150000Y73140000D03*
X34150000Y74160000D03*
%TD*%
%TO.C,R109*%
X25900000Y66690000D03*
X25900000Y67710000D03*
%TD*%
%TO.C,R902*%
X26300000Y52390000D03*
X26300000Y53410000D03*
%TD*%
D20*
%TO.C,C804*%
X44105000Y66225000D03*
X43145000Y66225000D03*
%TD*%
D35*
%TO.C,R501*%
X41550000Y81150000D03*
X42570000Y81150000D03*
%TD*%
D20*
%TO.C,C201*%
X15480000Y90100000D03*
X14520000Y90100000D03*
%TD*%
%TO.C,C601*%
X38900000Y6300000D03*
X37940000Y6300000D03*
%TD*%
D40*
%TO.C,C534*%
X30750000Y27350000D03*
X30750000Y26390000D03*
%TD*%
D39*
%TO.C,C501*%
X46900000Y76070000D03*
X46900000Y77030000D03*
%TD*%
D32*
%TO.C,R905*%
X26300000Y58810000D03*
X26300000Y57790000D03*
%TD*%
D40*
%TO.C,C802*%
X45300000Y65540000D03*
X45300000Y64580000D03*
%TD*%
D23*
%TO.C,R904*%
X26300000Y50490000D03*
X26300000Y51510000D03*
%TD*%
%TO.C,R503*%
X24950000Y20490000D03*
X24950000Y21510000D03*
%TD*%
D49*
%TO.C,C1204*%
X56925000Y70275000D03*
D50*
X56925000Y60125000D03*
%TD*%
D23*
%TO.C,R309*%
X37200000Y50390000D03*
X37200000Y51410000D03*
%TD*%
D19*
%TO.C,C703*%
X28800000Y47800000D03*
X29760000Y47800000D03*
%TD*%
D20*
%TO.C,C401*%
X36980000Y42800000D03*
X36020000Y42800000D03*
%TD*%
D51*
%TO.C,U401*%
X35800000Y45750000D03*
X35800000Y45250000D03*
X35800000Y44750000D03*
X35800000Y44250000D03*
X33800000Y44250000D03*
X33800000Y44750000D03*
X33800000Y45250000D03*
X33800000Y45750000D03*
D52*
X34800000Y45000000D03*
%TD*%
D32*
%TO.C,R105*%
X23000000Y66510000D03*
X23000000Y65490000D03*
%TD*%
D53*
%TO.C,C301*%
X27575000Y4575000D03*
X27575000Y3025000D03*
%TD*%
D29*
%TO.C,D902*%
X25000000Y49600000D03*
X25000000Y48904802D03*
%TD*%
D54*
%TO.C,J701*%
X30300002Y43427000D03*
X30000000Y46252001D03*
X29700000Y43427000D03*
X29400001Y46252001D03*
X29100001Y43427000D03*
X28800000Y46252001D03*
X28500000Y43427000D03*
X28200001Y46252001D03*
X27900001Y43427000D03*
X27599999Y46252001D03*
X27300000Y43427000D03*
X27000001Y46252001D03*
X26700001Y43427000D03*
X26399999Y46252001D03*
X26100000Y43427000D03*
X25800000Y46252001D03*
X25500001Y43427000D03*
X25199999Y46252001D03*
X24900000Y43427000D03*
X24600000Y46252001D03*
X24300001Y43427000D03*
D55*
X31024999Y43703200D03*
X23575001Y43703200D03*
%TD*%
D29*
%TO.C,D905*%
X25000000Y51800000D03*
X25000000Y51104802D03*
%TD*%
D35*
%TO.C,R401*%
X39500000Y38350000D03*
X40520000Y38350000D03*
%TD*%
%TO.C,R303*%
X26550000Y1800000D03*
X27570000Y1800000D03*
%TD*%
D23*
%TO.C,R304*%
X44950000Y45990000D03*
X44950000Y47010000D03*
%TD*%
D56*
%TO.C,U201*%
X14450000Y86960000D03*
X15720000Y86960000D03*
X16990000Y86960000D03*
X18260000Y86960000D03*
X19530000Y86960000D03*
X20800000Y86960000D03*
X22070000Y86960000D03*
X23340000Y86960000D03*
X24610000Y86960000D03*
X25880000Y86960000D03*
X27150000Y86960000D03*
X28420000Y86960000D03*
X29690000Y86960000D03*
X30960000Y86960000D03*
D57*
X32209934Y85195000D03*
X32209934Y83925000D03*
X32209934Y82655000D03*
X32209934Y81385000D03*
X32209934Y80115000D03*
X32209934Y78845000D03*
X32209934Y77575000D03*
X32209934Y76305000D03*
X32209934Y75035000D03*
X32209934Y73765000D03*
X32209934Y72495000D03*
X32209934Y71225000D03*
D56*
X30960000Y69460000D03*
X29690000Y69460000D03*
X28420000Y69460000D03*
X27150000Y69460000D03*
X25880000Y69460000D03*
X24610000Y69460000D03*
X23340000Y69460000D03*
X22070000Y69460000D03*
X20800000Y69460000D03*
X19530000Y69460000D03*
X18260000Y69460000D03*
X16990000Y69460000D03*
X15720000Y69460000D03*
X14450000Y69460000D03*
D58*
X21453926Y81150434D03*
X19953926Y81150434D03*
X18453926Y81150434D03*
X21453926Y79650434D03*
X19953926Y79650434D03*
X18453926Y79650434D03*
X21453926Y78150434D03*
X19953926Y78150434D03*
X18453926Y78150434D03*
%TD*%
D36*
%TO.C,R506*%
X24960000Y19550000D03*
X23940000Y19550000D03*
%TD*%
D32*
%TO.C,R406*%
X39500000Y40310000D03*
X39500000Y39290000D03*
%TD*%
D36*
%TO.C,R302*%
X28810000Y7900000D03*
X27790000Y7900000D03*
%TD*%
D59*
%TO.C,U301*%
X38950000Y44075000D03*
X38300000Y44075000D03*
X37650000Y44075000D03*
X37650000Y45925000D03*
X38300000Y45925000D03*
X38950000Y45925000D03*
D60*
X38790000Y45000000D03*
X37810000Y45000000D03*
%TD*%
D18*
%TO.C,D526*%
X24800000Y27350000D03*
X25495198Y27350000D03*
%TD*%
D61*
%TO.C,C701*%
X32525000Y42200000D03*
X34075000Y42200000D03*
%TD*%
D40*
%TO.C,C902*%
X26300000Y55280000D03*
X26300000Y54320000D03*
%TD*%
D39*
%TO.C,C304*%
X39350000Y48520000D03*
X39350000Y49480000D03*
%TD*%
D32*
%TO.C,R305*%
X46000000Y47010000D03*
X46000000Y45990000D03*
%TD*%
D19*
%TO.C,C203*%
X17020000Y89000000D03*
X17980000Y89000000D03*
%TD*%
D62*
%TO.C,Q101*%
X19700000Y66600000D03*
X21700000Y67560000D03*
X21700000Y65640000D03*
%TD*%
D40*
%TO.C,C533*%
X23850000Y27350000D03*
X23850000Y26390000D03*
%TD*%
M02*
