%TF.GenerationSoftware,KiCad,Pcbnew,8.0.3*%
%TF.CreationDate,2024-06-12T08:46:35+02:00*%
%TF.ProjectId,EVT-PCB,4556542d-5043-4422-9e6b-696361645f70,rev?*%
%TF.SameCoordinates,PX3d6aa80PY9402a00*%
%TF.FileFunction,Soldermask,Bot*%
%TF.FilePolarity,Negative*%
%FSLAX46Y46*%
G04 Gerber Fmt 4.6, Leading zero omitted, Abs format (unit mm)*
G04 Created by KiCad (PCBNEW 8.0.3) date 2024-06-12 08:46:35*
%MOMM*%
%LPD*%
G01*
G04 APERTURE LIST*
G04 Aperture macros list*
%AMRoundRect*
0 Rectangle with rounded corners*
0 $1 Rounding radius*
0 $2 $3 $4 $5 $6 $7 $8 $9 X,Y pos of 4 corners*
0 Add a 4 corners polygon primitive as box body*
4,1,4,$2,$3,$4,$5,$6,$7,$8,$9,$2,$3,0*
0 Add four circle primitives for the rounded corners*
1,1,$1+$1,$2,$3*
1,1,$1+$1,$4,$5*
1,1,$1+$1,$6,$7*
1,1,$1+$1,$8,$9*
0 Add four rect primitives between the rounded corners*
20,1,$1+$1,$2,$3,$4,$5,0*
20,1,$1+$1,$4,$5,$6,$7,0*
20,1,$1+$1,$6,$7,$8,$9,0*
20,1,$1+$1,$8,$9,$2,$3,0*%
G04 Aperture macros list end*
%ADD10R,1.300000X2.000000*%
%ADD11R,7.500000X7.500000*%
%ADD12RoundRect,0.051000X0.500000X-0.150000X0.500000X0.150000X-0.500000X0.150000X-0.500000X-0.150000X0*%
%ADD13R,1.250000X1.250000*%
%ADD14RoundRect,0.051000X-0.425000X0.150000X-0.425000X-0.150000X0.425000X-0.150000X0.425000X0.150000X0*%
%ADD15RoundRect,0.051000X-0.150000X-0.425000X0.150000X-0.425000X0.150000X0.425000X-0.150000X0.425000X0*%
%ADD16R,1.100000X1.900000*%
%ADD17RoundRect,0.102000X-0.350000X-1.150000X0.350000X-1.150000X0.350000X1.150000X-0.350000X1.150000X0*%
%ADD18C,0.500000*%
%ADD19C,2.200000*%
%ADD20C,1.522000*%
%ADD21C,3.102000*%
%ADD22C,0.752000*%
%ADD23O,1.204000X2.304000*%
%ADD24RoundRect,0.301000X-0.301000X-0.701000X0.301000X-0.701000X0.301000X0.701000X-0.301000X0.701000X0*%
%ADD25R,1.700000X1.700000*%
%ADD26O,1.700000X1.700000*%
%ADD27C,1.602000*%
%ADD28O,3.102000X3.902000*%
%ADD29RoundRect,0.051000X0.152400X0.279400X-0.152400X0.279400X-0.152400X-0.279400X0.152400X-0.279400X0*%
%ADD30C,1.000000*%
%ADD31RoundRect,0.140000X-0.140000X-0.170000X0.140000X-0.170000X0.140000X0.170000X-0.140000X0.170000X0*%
%ADD32C,2.000000*%
%ADD33RoundRect,0.140000X0.140000X0.170000X-0.140000X0.170000X-0.140000X-0.170000X0.140000X-0.170000X0*%
%ADD34RoundRect,0.051000X-0.125000X-0.337500X0.125000X-0.337500X0.125000X0.337500X-0.125000X0.337500X0*%
%ADD35RoundRect,0.051000X0.287500X-0.125000X0.287500X0.125000X-0.287500X0.125000X-0.287500X-0.125000X0*%
%ADD36RoundRect,0.135000X0.185000X-0.135000X0.185000X0.135000X-0.185000X0.135000X-0.185000X-0.135000X0*%
%ADD37RoundRect,0.051000X-0.300000X0.261000X-0.300000X-0.261000X0.300000X-0.261000X0.300000X0.261000X0*%
%ADD38C,1.727000*%
%ADD39C,1.102000*%
%ADD40RoundRect,0.051000X0.800000X-0.350000X0.800000X0.350000X-0.800000X0.350000X-0.800000X-0.350000X0*%
%ADD41RoundRect,0.051000X1.100000X-0.600000X1.100000X0.600000X-1.100000X0.600000X-1.100000X-0.600000X0*%
%ADD42RoundRect,0.051000X-0.750000X-0.800000X0.750000X-0.800000X0.750000X0.800000X-0.750000X0.800000X0*%
%ADD43RoundRect,0.051000X0.900000X-0.600000X0.900000X0.600000X-0.900000X0.600000X-0.900000X-0.600000X0*%
%ADD44RoundRect,0.051000X-0.279400X0.152400X-0.279400X-0.152400X0.279400X-0.152400X0.279400X0.152400X0*%
%ADD45RoundRect,0.051000X-0.150000X-0.162500X0.150000X-0.162500X0.150000X0.162500X-0.150000X0.162500X0*%
%ADD46RoundRect,0.051000X-0.306500X-0.475000X0.306500X-0.475000X0.306500X0.475000X-0.306500X0.475000X0*%
%ADD47RoundRect,0.135000X-0.185000X0.135000X-0.185000X-0.135000X0.185000X-0.135000X0.185000X0.135000X0*%
%ADD48RoundRect,0.051000X0.279400X-0.152400X0.279400X0.152400X-0.279400X0.152400X-0.279400X-0.152400X0*%
%ADD49RoundRect,0.051000X-0.127000X0.406400X-0.127000X-0.406400X0.127000X-0.406400X0.127000X0.406400X0*%
%ADD50RoundRect,0.051000X-0.914400X0.774700X-0.914400X-0.774700X0.914400X-0.774700X0.914400X0.774700X0*%
%ADD51RoundRect,0.135000X-0.135000X-0.185000X0.135000X-0.185000X0.135000X0.185000X-0.135000X0.185000X0*%
%ADD52RoundRect,0.135000X0.135000X0.185000X-0.135000X0.185000X-0.135000X-0.185000X0.135000X-0.185000X0*%
%ADD53RoundRect,0.051000X0.406400X0.127000X-0.406400X0.127000X-0.406400X-0.127000X0.406400X-0.127000X0*%
%ADD54RoundRect,0.051000X0.762000X1.143000X-0.762000X1.143000X-0.762000X-1.143000X0.762000X-1.143000X0*%
%ADD55RoundRect,0.140000X0.170000X-0.140000X0.170000X0.140000X-0.170000X0.140000X-0.170000X-0.140000X0*%
%ADD56RoundRect,0.140000X-0.170000X0.140000X-0.170000X-0.140000X0.170000X-0.140000X0.170000X0.140000X0*%
%ADD57RoundRect,0.051000X0.575000X-0.275000X0.575000X0.275000X-0.575000X0.275000X-0.575000X-0.275000X0*%
%ADD58RoundRect,0.051000X-0.647700X-1.193800X0.647700X-1.193800X0.647700X1.193800X-0.647700X1.193800X0*%
%ADD59RoundRect,0.225000X0.250000X-0.225000X0.250000X0.225000X-0.250000X0.225000X-0.250000X-0.225000X0*%
%ADD60RoundRect,0.051000X0.425000X-0.150000X0.425000X0.150000X-0.425000X0.150000X-0.425000X-0.150000X0*%
%ADD61RoundRect,0.051000X0.150000X0.425000X-0.150000X0.425000X-0.150000X-0.425000X0.150000X-0.425000X0*%
%ADD62RoundRect,0.051000X2.625000X2.625000X-2.625000X2.625000X-2.625000X-2.625000X2.625000X-2.625000X0*%
%ADD63RoundRect,0.051000X0.266700X-0.673100X0.266700X0.673100X-0.266700X0.673100X-0.266700X-0.673100X0*%
%ADD64RoundRect,0.102000X0.370000X1.110000X-0.370000X1.110000X-0.370000X-1.110000X0.370000X-1.110000X0*%
%ADD65RoundRect,0.051000X0.500000X0.900000X-0.500000X0.900000X-0.500000X-0.900000X0.500000X-0.900000X0*%
%ADD66RoundRect,0.051000X0.673100X0.266700X-0.673100X0.266700X-0.673100X-0.266700X0.673100X-0.266700X0*%
%ADD67RoundRect,0.102000X2.500000X1.000000X-2.500000X1.000000X-2.500000X-1.000000X2.500000X-1.000000X0*%
%ADD68RoundRect,0.102000X2.000000X0.850000X-2.000000X0.850000X-2.000000X-0.850000X2.000000X-0.850000X0*%
%ADD69RoundRect,0.051000X0.375000X-0.150000X0.375000X0.150000X-0.375000X0.150000X-0.375000X-0.150000X0*%
%ADD70RoundRect,0.051000X0.450000X0.650000X-0.450000X0.650000X-0.450000X-0.650000X0.450000X-0.650000X0*%
%ADD71RoundRect,0.225000X-0.250000X0.225000X-0.250000X-0.225000X0.250000X-0.225000X0.250000X0.225000X0*%
%ADD72RoundRect,0.051000X0.165100X0.419100X-0.165100X0.419100X-0.165100X-0.419100X0.165100X-0.419100X0*%
%ADD73RoundRect,0.051000X0.228600X0.495300X-0.228600X0.495300X-0.228600X-0.495300X0.228600X-0.495300X0*%
%ADD74RoundRect,0.051000X-0.444500X0.749300X-0.444500X-0.749300X0.444500X-0.749300X0.444500X0.749300X0*%
%ADD75RoundRect,0.051000X-0.749300X0.444500X-0.749300X-0.444500X0.749300X-0.444500X0.749300X0.444500X0*%
%ADD76RoundRect,0.051000X-0.495300X0.495300X-0.495300X-0.495300X0.495300X-0.495300X0.495300X0.495300X0*%
%ADD77RoundRect,0.051000X0.195000X0.225000X-0.195000X0.225000X-0.195000X-0.225000X0.195000X-0.225000X0*%
%ADD78RoundRect,0.051000X0.410000X0.550000X-0.410000X0.550000X-0.410000X-0.550000X0.410000X-0.550000X0*%
%ADD79RoundRect,0.051000X-0.152400X-0.279400X0.152400X-0.279400X0.152400X0.279400X-0.152400X0.279400X0*%
%ADD80RoundRect,0.225000X-0.225000X-0.250000X0.225000X-0.250000X0.225000X0.250000X-0.225000X0.250000X0*%
%ADD81RoundRect,0.051000X0.575000X-0.300000X0.575000X0.300000X-0.575000X0.300000X-0.575000X-0.300000X0*%
G04 APERTURE END LIST*
D10*
%TO.C,U1102*%
X56700000Y82950000D03*
D11*
X71700000Y91000000D03*
D10*
X56700000Y99050000D03*
D12*
X54000000Y85050000D03*
X54000000Y85550000D03*
X54000000Y86050000D03*
X54000000Y86550000D03*
X54000000Y87050000D03*
X54000000Y87550000D03*
X54000000Y88050000D03*
X54000000Y88550000D03*
X54000000Y89050000D03*
X54000000Y89550000D03*
X54000000Y90050000D03*
X54000000Y90550000D03*
X54000000Y91050000D03*
X54000000Y91550000D03*
X54000000Y92050000D03*
X54000000Y92550000D03*
X54000000Y93050000D03*
X54000000Y93550000D03*
X54000000Y94050000D03*
X54000000Y94550000D03*
X54000000Y95050000D03*
X54000000Y95550000D03*
X54000000Y96050000D03*
X54000000Y96550000D03*
%TD*%
D13*
%TO.C,U1001*%
X12800000Y42900000D03*
D14*
X11350000Y42150000D03*
X11350000Y42650000D03*
X11350000Y43150000D03*
X11350000Y43650000D03*
D15*
X12050000Y44350000D03*
X12550000Y44350000D03*
X13050000Y44350000D03*
X13550000Y44350000D03*
D14*
X14250000Y43650000D03*
X14250000Y43150000D03*
X14250000Y42650000D03*
X14250000Y42150000D03*
D15*
X13550000Y41450000D03*
X13050000Y41450000D03*
X12550000Y41450000D03*
X12050000Y41450000D03*
%TD*%
D16*
%TO.C,J1001*%
X15900000Y40573000D03*
X21300000Y40573000D03*
D17*
X19350000Y44073000D03*
X17850000Y44073000D03*
%TD*%
D18*
%TO.C,mouse-bite-2mm-slot*%
X47850000Y3050000D03*
X49350000Y3050000D03*
X47850000Y3800000D03*
X49350000Y3800000D03*
X47850000Y4550000D03*
X49350000Y4550000D03*
%TD*%
%TO.C,mouse-bite-2mm-slot3*%
X57425000Y77350000D03*
X57425000Y78850000D03*
X56675000Y77350000D03*
X56675000Y78850000D03*
X55925000Y77350000D03*
X55925000Y78850000D03*
%TD*%
D19*
%TO.C,H1302*%
X60450000Y48300000D03*
%TD*%
D20*
%TO.C,J1101*%
X54268000Y101480000D03*
X54268000Y80520000D03*
%TD*%
D18*
%TO.C,mouse-bite-2mm-slot*%
X57425000Y6050000D03*
X57425000Y7550000D03*
X56675000Y6050000D03*
X56675000Y7550000D03*
X55925000Y6050000D03*
X55925000Y7550000D03*
%TD*%
%TO.C,mouse-bite-2mm-slot*%
X77850000Y2150000D03*
X79350000Y2150000D03*
X77850000Y2900000D03*
X79350000Y2900000D03*
X77850000Y3650000D03*
X79350000Y3650000D03*
%TD*%
%TO.C,mouse-bite-2mm-slot1*%
X5250000Y74900000D03*
X6750000Y74900000D03*
X5250000Y75650000D03*
X6750000Y75650000D03*
X5250000Y76400000D03*
X6750000Y76400000D03*
%TD*%
D19*
%TO.C,H1301*%
X60450000Y10800000D03*
%TD*%
D21*
%TO.C,U1201*%
X71200000Y65200000D03*
%TD*%
D18*
%TO.C,mouse-bite-2mm-slot3*%
X47850000Y64450000D03*
X49350000Y64450000D03*
X47850000Y65200000D03*
X49350000Y65200000D03*
X47850000Y65950000D03*
X49350000Y65950000D03*
%TD*%
%TO.C,mouse-bite-2mm-slot*%
X5250000Y92100000D03*
X6750000Y92100000D03*
X5250000Y92850000D03*
X6750000Y92850000D03*
X5250000Y93600000D03*
X6750000Y93600000D03*
%TD*%
D19*
%TO.C,H105*%
X11260000Y10860000D03*
%TD*%
D22*
%TO.C,J301*%
X24410000Y4905000D03*
X30190000Y4905000D03*
D23*
X22980000Y5405000D03*
X31620000Y5405000D03*
D24*
X22980000Y1225000D03*
X31620000Y1225000D03*
%TD*%
D18*
%TO.C,mouse-bite-2mm-slot4*%
X5250000Y14900000D03*
X6750000Y14900000D03*
X5250000Y15650000D03*
X6750000Y15650000D03*
X5250000Y16400000D03*
X6750000Y16400000D03*
%TD*%
%TO.C,mouse-bite-2mm-slot3*%
X5250000Y34900000D03*
X6750000Y34900000D03*
X5250000Y35650000D03*
X6750000Y35650000D03*
X5250000Y36400000D03*
X6750000Y36400000D03*
%TD*%
%TO.C,mouse-bite-2mm-slot3*%
X47850000Y39800000D03*
X49350000Y39800000D03*
X47850000Y40550000D03*
X49350000Y40550000D03*
X47850000Y41300000D03*
X49350000Y41300000D03*
%TD*%
D19*
%TO.C,H102*%
X43340000Y98140000D03*
%TD*%
%TO.C,H101*%
X11260000Y98140000D03*
%TD*%
D25*
%TO.C,J1304*%
X56375000Y11780000D03*
D26*
X56375000Y14320000D03*
X56375000Y16860000D03*
X56375000Y19400000D03*
X56375000Y21940000D03*
X56375000Y24480000D03*
X56375000Y27020000D03*
X56375000Y29560000D03*
X56375000Y32100000D03*
X56375000Y34640000D03*
X56375000Y37180000D03*
X56375000Y39720000D03*
X56375000Y42260000D03*
X56375000Y44800000D03*
X56375000Y47340000D03*
%TD*%
D20*
%TO.C,J1303*%
X72932000Y19070000D03*
X72932000Y40030000D03*
%TD*%
D19*
%TO.C,H106*%
X11260000Y34634000D03*
%TD*%
D18*
%TO.C,mouse-bite-2mm-slot*%
X77850000Y64450000D03*
X79350000Y64450000D03*
X77850000Y65200000D03*
X79350000Y65200000D03*
X77850000Y65950000D03*
X79350000Y65950000D03*
%TD*%
D19*
%TO.C,H103*%
X43340000Y34634000D03*
%TD*%
D27*
%TO.C,E501*%
X29800000Y14900000D03*
X24800000Y14900000D03*
X29800000Y29400000D03*
X24800000Y29400000D03*
X27300000Y29400000D03*
D28*
X33000000Y21900000D03*
X21600000Y21900000D03*
%TD*%
D19*
%TO.C,H1201*%
X60750000Y74100000D03*
%TD*%
D18*
%TO.C,mouse-bite-2mm-slot*%
X77850000Y28800000D03*
X79350000Y28800000D03*
X77850000Y29550000D03*
X79350000Y29550000D03*
X77850000Y30300000D03*
X79350000Y30300000D03*
%TD*%
D20*
%TO.C,J1201*%
X54268000Y75680000D03*
X54268000Y54720000D03*
%TD*%
D18*
%TO.C,mouse-bite-2mm-slot*%
X47850000Y17800000D03*
X49350000Y17800000D03*
X47850000Y18550000D03*
X49350000Y18550000D03*
X47850000Y19300000D03*
X49350000Y19300000D03*
%TD*%
%TO.C,mouse-bite-2mm-slot*%
X77850000Y90250000D03*
X79350000Y90250000D03*
X77850000Y91000000D03*
X79350000Y91000000D03*
X77850000Y91750000D03*
X79350000Y91750000D03*
%TD*%
%TO.C,mouse-bite-2mm-slot3*%
X47850000Y90250000D03*
X49350000Y90250000D03*
X47850000Y91000000D03*
X49350000Y91000000D03*
X47850000Y91750000D03*
X49350000Y91750000D03*
%TD*%
%TO.C,mouse-bite-2mm-slot3*%
X57425000Y51550000D03*
X57425000Y53050000D03*
X56675000Y51550000D03*
X56675000Y53050000D03*
X55925000Y51550000D03*
X55925000Y53050000D03*
%TD*%
D19*
%TO.C,H1202*%
X60750000Y56300000D03*
%TD*%
%TO.C,H104*%
X43340000Y10860000D03*
%TD*%
D18*
%TO.C,mouse-bite-2mm-slot2*%
X5250000Y54900000D03*
X6750000Y54900000D03*
X5250000Y55650000D03*
X6750000Y55650000D03*
X5250000Y56400000D03*
X6750000Y56400000D03*
%TD*%
D25*
%TO.C,J1302*%
X60425000Y19400000D03*
D26*
X60425000Y21940000D03*
X60425000Y24480000D03*
X60425000Y27020000D03*
X60425000Y29560000D03*
X60425000Y32100000D03*
X60425000Y34640000D03*
X60425000Y37180000D03*
X60425000Y39720000D03*
%TD*%
D29*
%TO.C,D527*%
X24800000Y17000000D03*
X24104802Y17000000D03*
%TD*%
D30*
%TO.C,TP501*%
X46200000Y87550000D03*
%TD*%
D31*
%TO.C,C805*%
X41295000Y66225000D03*
X42255000Y66225000D03*
%TD*%
D32*
%TO.C,FID103*%
X2500000Y100350000D03*
%TD*%
D33*
%TO.C,C1002*%
X13050000Y45800000D03*
X12090000Y45800000D03*
%TD*%
D30*
%TO.C,TP1210*%
X57950000Y57580000D03*
%TD*%
%TO.C,TP1209*%
X53250000Y57600000D03*
%TD*%
D29*
%TO.C,D201*%
X15347599Y91400000D03*
X14652401Y91400000D03*
%TD*%
%TO.C,D525*%
X29800000Y27350000D03*
X29104802Y27350000D03*
%TD*%
D34*
%TO.C,U801*%
X43950000Y64063000D03*
D35*
X44013000Y63250000D03*
X44013000Y62750000D03*
X44013000Y62250000D03*
X44013000Y61750000D03*
D34*
X43950000Y60937000D03*
X43450000Y60937000D03*
X42950000Y60937000D03*
X42450000Y60937000D03*
X41950000Y60937000D03*
X41450000Y60937000D03*
X40950000Y60937000D03*
X40450000Y60937000D03*
X39950000Y60937000D03*
X39450000Y60937000D03*
D35*
X39387000Y61750000D03*
X39387000Y62250000D03*
X39387000Y62750000D03*
X39387000Y63250000D03*
D34*
X39450000Y64063000D03*
X39950000Y64063000D03*
X40450000Y64063000D03*
X40950000Y64063000D03*
X41450000Y64063000D03*
X41950000Y64063000D03*
X42450000Y64063000D03*
X42950000Y64063000D03*
X43450000Y64063000D03*
%TD*%
D36*
%TO.C,R504*%
X31900000Y28300000D03*
X31900000Y29320000D03*
%TD*%
D32*
%TO.C,FID110*%
X45600000Y2000000D03*
%TD*%
D37*
%TO.C,M601*%
X40700000Y4574000D03*
X40700000Y3752000D03*
D38*
X39800000Y2500000D03*
D37*
X38900000Y3752000D03*
X38900000Y4574000D03*
X39800000Y4574000D03*
%TD*%
D39*
%TO.C,J901*%
X12200000Y51200000D03*
X12200000Y59200000D03*
D40*
X23200000Y58400000D03*
X23200000Y57300000D03*
X23200000Y56200000D03*
X23200000Y55100000D03*
X23200000Y54000000D03*
X23200000Y52900000D03*
X23200000Y51800000D03*
X23200000Y50700000D03*
X23200000Y49600000D03*
D41*
X12600000Y63900000D03*
X12600000Y48400000D03*
D42*
X22150000Y63000000D03*
D43*
X21900000Y48400000D03*
%TD*%
D44*
%TO.C,D901*%
X25000000Y55097599D03*
X25000000Y54402401D03*
%TD*%
D30*
%TO.C,TP507*%
X31450000Y33000000D03*
%TD*%
D33*
%TO.C,C503*%
X24930000Y18400000D03*
X23970000Y18400000D03*
%TD*%
D45*
%TO.C,Q301*%
X36450000Y47387000D03*
D46*
X36634000Y48300000D03*
X37566000Y48300000D03*
D45*
X37750000Y49212000D03*
X37100000Y49212000D03*
X37100000Y47387000D03*
X36450000Y49212000D03*
X37750000Y47387000D03*
%TD*%
D47*
%TO.C,R104*%
X34550000Y83670000D03*
X34550000Y82650000D03*
%TD*%
D48*
%TO.C,D904*%
X25000000Y56200000D03*
X25000000Y56895198D03*
%TD*%
D36*
%TO.C,R103*%
X34550000Y80390000D03*
X34550000Y81410000D03*
%TD*%
D49*
%TO.C,U302*%
X41083999Y51097000D03*
X41584000Y51097000D03*
X42084000Y51097000D03*
X42584001Y51097000D03*
X42584001Y48303000D03*
X42084000Y48303000D03*
X41584000Y48303000D03*
X41083999Y48303000D03*
D50*
X41834000Y49700000D03*
%TD*%
D36*
%TO.C,R404*%
X45600000Y39680000D03*
X45600000Y40700000D03*
%TD*%
D51*
%TO.C,R601*%
X39790000Y6300000D03*
X40810000Y6300000D03*
%TD*%
D31*
%TO.C,C801*%
X42450000Y59600000D03*
X43410000Y59600000D03*
%TD*%
D36*
%TO.C,R402*%
X32350000Y43230000D03*
X32350000Y44250000D03*
%TD*%
D30*
%TO.C,TP506*%
X32900000Y31500000D03*
%TD*%
D36*
%TO.C,R110*%
X16650000Y65440000D03*
X16650000Y66460000D03*
%TD*%
D52*
%TO.C,R108*%
X40610000Y70100000D03*
X39590000Y70100000D03*
%TD*%
D30*
%TO.C,TP504*%
X46200000Y85550000D03*
%TD*%
D36*
%TO.C,R308*%
X36100000Y50390000D03*
X36100000Y51410000D03*
%TD*%
D32*
%TO.C,FID108*%
X2500000Y2450000D03*
%TD*%
D53*
%TO.C,U402*%
X43697000Y42200001D03*
X43697000Y41699999D03*
X43697000Y41200000D03*
X43697000Y40700001D03*
X43697000Y40199999D03*
X40903000Y40199999D03*
X40903000Y40700001D03*
X40903000Y41200000D03*
X40903000Y41699999D03*
X40903000Y42200001D03*
D54*
X42300000Y41200000D03*
%TD*%
D55*
%TO.C,C302*%
X43900000Y46020000D03*
X43900000Y46980000D03*
%TD*%
D56*
%TO.C,C901*%
X27400000Y55280000D03*
X27400000Y54320000D03*
%TD*%
D36*
%TO.C,R107*%
X36650000Y70090000D03*
X36650000Y71110000D03*
%TD*%
D31*
%TO.C,C705*%
X33020000Y41000000D03*
X33980000Y41000000D03*
%TD*%
D36*
%TO.C,R403*%
X46600000Y40190000D03*
X46600000Y41210000D03*
%TD*%
D57*
%TO.C,D302*%
X34700000Y50400000D03*
X34700000Y49100000D03*
X32700000Y49750000D03*
%TD*%
D30*
%TO.C,TP1204*%
X75800000Y61000000D03*
%TD*%
%TO.C,TP114*%
X33103809Y36341081D03*
%TD*%
%TO.C,TP505*%
X46200000Y83550000D03*
%TD*%
D33*
%TO.C,C532*%
X41480000Y71200000D03*
X40520000Y71200000D03*
%TD*%
D30*
%TO.C,TP1001*%
X8300000Y41650000D03*
%TD*%
%TO.C,TP104*%
X35400000Y85300000D03*
%TD*%
%TO.C,TP103*%
X37200000Y86300000D03*
%TD*%
D47*
%TO.C,R407*%
X38400000Y40310000D03*
X38400000Y39290000D03*
%TD*%
D31*
%TO.C,C529*%
X37450000Y81000000D03*
X38410000Y81000000D03*
%TD*%
D33*
%TO.C,C402*%
X43405000Y43700000D03*
X42445000Y43700000D03*
%TD*%
D58*
%TO.C,L301*%
X41586200Y54500000D03*
X44481800Y54500000D03*
%TD*%
D47*
%TO.C,R1001*%
X9900000Y44810000D03*
X9900000Y43790000D03*
%TD*%
D36*
%TO.C,R801*%
X45300000Y60840000D03*
X45300000Y61860000D03*
%TD*%
D33*
%TO.C,C528*%
X40690000Y81150000D03*
X39730000Y81150000D03*
%TD*%
D56*
%TO.C,C303*%
X44300000Y51130000D03*
X44300000Y50170000D03*
%TD*%
D33*
%TO.C,C1001*%
X13050000Y46800000D03*
X12090000Y46800000D03*
%TD*%
%TO.C,C202*%
X15480000Y89000000D03*
X14520000Y89000000D03*
%TD*%
%TO.C,C530*%
X41550000Y82050000D03*
X40590000Y82050000D03*
%TD*%
D59*
%TO.C,C403*%
X35700000Y40025000D03*
X35700000Y41575000D03*
%TD*%
D47*
%TO.C,R201*%
X17025000Y90920000D03*
X17025000Y89900000D03*
%TD*%
D48*
%TO.C,D906*%
X25000000Y57652401D03*
X25000000Y58347599D03*
%TD*%
D44*
%TO.C,D202*%
X18350000Y90647599D03*
X18350000Y89952401D03*
%TD*%
D60*
%TO.C,IC501*%
X44350000Y78850000D03*
X44350000Y78350000D03*
X44350000Y77850000D03*
X44350000Y77350000D03*
X44350000Y76850000D03*
X44350000Y76350000D03*
X44350000Y75850000D03*
X44350000Y75350000D03*
X44350000Y74850000D03*
X44350000Y74350000D03*
X44350000Y73850000D03*
X44350000Y73350000D03*
D61*
X43650000Y72650000D03*
X43150000Y72650000D03*
X42650000Y72650000D03*
X42150000Y72650000D03*
X41650000Y72650000D03*
X41150000Y72650000D03*
X40650000Y72650000D03*
X40150000Y72650000D03*
X39650000Y72650000D03*
X39150000Y72650000D03*
X38650000Y72650000D03*
X38150000Y72650000D03*
D60*
X37450000Y73350000D03*
X37450000Y73850000D03*
X37450000Y74350000D03*
X37450000Y74850000D03*
X37450000Y75350000D03*
X37450000Y75850000D03*
X37450000Y76350000D03*
X37450000Y76850000D03*
X37450000Y77350000D03*
X37450000Y77850000D03*
X37450000Y78350000D03*
X37450000Y78850000D03*
D61*
X38150000Y79550000D03*
X38650000Y79550000D03*
X39150000Y79550000D03*
X39650000Y79550000D03*
X40150000Y79550000D03*
X40650000Y79550000D03*
X41150000Y79550000D03*
X41650000Y79550000D03*
X42150000Y79550000D03*
X42650000Y79550000D03*
X43150000Y79550000D03*
X43650000Y79550000D03*
D62*
X40900000Y76100000D03*
%TD*%
D63*
%TO.C,U1203*%
X64520000Y60195000D03*
X63250000Y60195000D03*
X61980000Y60195000D03*
X61980000Y64005000D03*
X63250000Y64005000D03*
X64520000Y64005000D03*
%TD*%
D30*
%TO.C,TP201*%
X8600000Y92200000D03*
%TD*%
D47*
%TO.C,R101*%
X34150000Y76410000D03*
X34150000Y75390000D03*
%TD*%
D32*
%TO.C,FID106*%
X82100000Y100400000D03*
%TD*%
D55*
%TO.C,C803*%
X45300000Y62750000D03*
X45300000Y63710000D03*
%TD*%
D47*
%TO.C,R508*%
X31900000Y27380000D03*
X31900000Y26360000D03*
%TD*%
D36*
%TO.C,R505*%
X22800000Y28300000D03*
X22800000Y29320000D03*
%TD*%
D33*
%TO.C,C531*%
X41550000Y83100000D03*
X40590000Y83100000D03*
%TD*%
D47*
%TO.C,R306*%
X33900000Y48010000D03*
X33900000Y46990000D03*
%TD*%
D36*
%TO.C,R301*%
X40310000Y44900000D03*
X40310000Y45920000D03*
%TD*%
D20*
%TO.C,J101*%
X37780000Y99200000D03*
X16820000Y99200000D03*
D64*
X18410000Y97835000D03*
X18410000Y100565000D03*
X19680000Y97835000D03*
X19680000Y100565000D03*
X20950000Y97835000D03*
X20950000Y100565000D03*
X22220000Y97835000D03*
X22220000Y100565000D03*
X23490000Y97835000D03*
X23490000Y100565000D03*
X24760000Y97835000D03*
X24760000Y100565000D03*
X26030000Y97835000D03*
X26030000Y100565000D03*
X27300000Y97835000D03*
X27300000Y100565000D03*
X28570000Y97835000D03*
X28570000Y100565000D03*
X29840000Y97835000D03*
X29840000Y100565000D03*
X31110000Y97835000D03*
X31110000Y100565000D03*
X32380000Y97835000D03*
X32380000Y100565000D03*
X33650000Y97835000D03*
X33650000Y100565000D03*
X34920000Y97835000D03*
X34920000Y100565000D03*
X36190000Y97835000D03*
X36190000Y100565000D03*
%TD*%
D52*
%TO.C,R405*%
X39510000Y41200000D03*
X38490000Y41200000D03*
%TD*%
D30*
%TO.C,TP113*%
X35000000Y53800000D03*
%TD*%
D55*
%TO.C,C502*%
X45900000Y76070000D03*
X45900000Y77030000D03*
%TD*%
%TO.C,C305*%
X35000000Y47020000D03*
X35000000Y47980000D03*
%TD*%
D30*
%TO.C,TP503*%
X46200000Y91550000D03*
%TD*%
D65*
%TO.C,X801*%
X43950000Y68100000D03*
X41450000Y68100000D03*
%TD*%
D47*
%TO.C,R507*%
X22800000Y27380000D03*
X22800000Y26360000D03*
%TD*%
D66*
%TO.C,U1301*%
X67375500Y38445000D03*
X67375500Y37175000D03*
X67375500Y35905000D03*
X63565500Y35905000D03*
X63565500Y37175000D03*
X63565500Y38445000D03*
%TD*%
D36*
%TO.C,R901*%
X26300000Y48580000D03*
X26300000Y49600000D03*
%TD*%
D52*
%TO.C,R903*%
X27210000Y56200000D03*
X26190000Y56200000D03*
%TD*%
D30*
%TO.C,TP502*%
X46200000Y93550000D03*
%TD*%
D44*
%TO.C,D903*%
X25000000Y53647599D03*
X25000000Y52952401D03*
%TD*%
D36*
%TO.C,R102*%
X34150000Y73140000D03*
X34150000Y74160000D03*
%TD*%
%TO.C,R109*%
X25900000Y66690000D03*
X25900000Y67710000D03*
%TD*%
%TO.C,R902*%
X26300000Y52390000D03*
X26300000Y53410000D03*
%TD*%
D33*
%TO.C,C804*%
X44105000Y66225000D03*
X43145000Y66225000D03*
%TD*%
D51*
%TO.C,R501*%
X41550000Y81150000D03*
X42570000Y81150000D03*
%TD*%
D30*
%TO.C,TP105*%
X45750000Y51200000D03*
%TD*%
D33*
%TO.C,C201*%
X15480000Y90100000D03*
X14520000Y90100000D03*
%TD*%
%TO.C,C601*%
X38900000Y6300000D03*
X37940000Y6300000D03*
%TD*%
D30*
%TO.C,TP1002*%
X8300000Y43650000D03*
%TD*%
D56*
%TO.C,C534*%
X30750000Y27350000D03*
X30750000Y26390000D03*
%TD*%
D55*
%TO.C,C501*%
X46900000Y76070000D03*
X46900000Y77030000D03*
%TD*%
D47*
%TO.C,R905*%
X26300000Y58810000D03*
X26300000Y57790000D03*
%TD*%
D56*
%TO.C,C802*%
X45300000Y65540000D03*
X45300000Y64580000D03*
%TD*%
D36*
%TO.C,R904*%
X26300000Y50490000D03*
X26300000Y51510000D03*
%TD*%
%TO.C,R503*%
X24950000Y20490000D03*
X24950000Y21510000D03*
%TD*%
D67*
%TO.C,C1204*%
X56925000Y70275000D03*
D68*
X56925000Y60125000D03*
%TD*%
D36*
%TO.C,R309*%
X37200000Y50390000D03*
X37200000Y51410000D03*
%TD*%
D31*
%TO.C,C703*%
X28800000Y47800000D03*
X29760000Y47800000D03*
%TD*%
D33*
%TO.C,C401*%
X36980000Y42800000D03*
X36020000Y42800000D03*
%TD*%
D30*
%TO.C,TP301*%
X45700000Y43750000D03*
%TD*%
D32*
%TO.C,FID109*%
X9000000Y100900000D03*
%TD*%
D69*
%TO.C,U401*%
X35800000Y45750000D03*
X35800000Y45250000D03*
X35800000Y44750000D03*
X35800000Y44250000D03*
X33800000Y44250000D03*
X33800000Y44750000D03*
X33800000Y45250000D03*
X33800000Y45750000D03*
D70*
X34800000Y45000000D03*
%TD*%
D19*
%TO.C,H1102*%
X60750000Y82100000D03*
%TD*%
D47*
%TO.C,R105*%
X23000000Y66510000D03*
X23000000Y65490000D03*
%TD*%
D71*
%TO.C,C301*%
X27575000Y4575000D03*
X27575000Y3025000D03*
%TD*%
D44*
%TO.C,D902*%
X25000000Y49600000D03*
X25000000Y48904802D03*
%TD*%
D72*
%TO.C,J701*%
X30300002Y43427000D03*
X30000000Y46252001D03*
X29700000Y43427000D03*
X29400001Y46252001D03*
X29100001Y43427000D03*
X28800000Y46252001D03*
X28500000Y43427000D03*
X28200001Y46252001D03*
X27900001Y43427000D03*
X27599999Y46252001D03*
X27300000Y43427000D03*
X27000001Y46252001D03*
X26700001Y43427000D03*
X26399999Y46252001D03*
X26100000Y43427000D03*
X25800000Y46252001D03*
X25500001Y43427000D03*
X25199999Y46252001D03*
X24900000Y43427000D03*
X24600000Y46252001D03*
X24300001Y43427000D03*
D73*
X31024999Y43703200D03*
X23575001Y43703200D03*
%TD*%
D44*
%TO.C,D905*%
X25000000Y51800000D03*
X25000000Y51104802D03*
%TD*%
D51*
%TO.C,R401*%
X39500000Y38350000D03*
X40520000Y38350000D03*
%TD*%
%TO.C,R303*%
X26550000Y1800000D03*
X27570000Y1800000D03*
%TD*%
D36*
%TO.C,R304*%
X44950000Y45990000D03*
X44950000Y47010000D03*
%TD*%
D74*
%TO.C,U201*%
X14450000Y86960000D03*
X15720000Y86960000D03*
X16990000Y86960000D03*
X18260000Y86960000D03*
X19530000Y86960000D03*
X20800000Y86960000D03*
X22070000Y86960000D03*
X23340000Y86960000D03*
X24610000Y86960000D03*
X25880000Y86960000D03*
X27150000Y86960000D03*
X28420000Y86960000D03*
X29690000Y86960000D03*
X30960000Y86960000D03*
D75*
X32209934Y85195000D03*
X32209934Y83925000D03*
X32209934Y82655000D03*
X32209934Y81385000D03*
X32209934Y80115000D03*
X32209934Y78845000D03*
X32209934Y77575000D03*
X32209934Y76305000D03*
X32209934Y75035000D03*
X32209934Y73765000D03*
X32209934Y72495000D03*
X32209934Y71225000D03*
D74*
X30960000Y69460000D03*
X29690000Y69460000D03*
X28420000Y69460000D03*
X27150000Y69460000D03*
X25880000Y69460000D03*
X24610000Y69460000D03*
X23340000Y69460000D03*
X22070000Y69460000D03*
X20800000Y69460000D03*
X19530000Y69460000D03*
X18260000Y69460000D03*
X16990000Y69460000D03*
X15720000Y69460000D03*
X14450000Y69460000D03*
D76*
X21453926Y81150434D03*
X19953926Y81150434D03*
X18453926Y81150434D03*
X21453926Y79650434D03*
X19953926Y79650434D03*
X18453926Y79650434D03*
X21453926Y78150434D03*
X19953926Y78150434D03*
X18453926Y78150434D03*
%TD*%
D30*
%TO.C,TP202*%
X8600000Y90200000D03*
%TD*%
D52*
%TO.C,R506*%
X24960000Y19550000D03*
X23940000Y19550000D03*
%TD*%
D30*
%TO.C,TP401*%
X35500000Y37200000D03*
%TD*%
D47*
%TO.C,R406*%
X39500000Y40310000D03*
X39500000Y39290000D03*
%TD*%
D52*
%TO.C,R302*%
X28810000Y7900000D03*
X27790000Y7900000D03*
%TD*%
D77*
%TO.C,U301*%
X38950000Y44075000D03*
X38300000Y44075000D03*
X37650000Y44075000D03*
X37650000Y45925000D03*
X38300000Y45925000D03*
X38950000Y45925000D03*
D78*
X38790000Y45000000D03*
X37810000Y45000000D03*
%TD*%
D19*
%TO.C,H1101*%
X60750000Y99900000D03*
%TD*%
D79*
%TO.C,D526*%
X24800000Y27350000D03*
X25495198Y27350000D03*
%TD*%
D80*
%TO.C,C701*%
X32525000Y42200000D03*
X34075000Y42200000D03*
%TD*%
D56*
%TO.C,C902*%
X26300000Y55280000D03*
X26300000Y54320000D03*
%TD*%
D55*
%TO.C,C304*%
X39350000Y48520000D03*
X39350000Y49480000D03*
%TD*%
D47*
%TO.C,R305*%
X46000000Y47010000D03*
X46000000Y45990000D03*
%TD*%
D31*
%TO.C,C203*%
X17020000Y89000000D03*
X17980000Y89000000D03*
%TD*%
D30*
%TO.C,TP508*%
X46200000Y81550000D03*
%TD*%
D81*
%TO.C,Q101*%
X19700000Y66600000D03*
X21700000Y67560000D03*
X21700000Y65640000D03*
%TD*%
D56*
%TO.C,C533*%
X23850000Y27350000D03*
X23850000Y26390000D03*
%TD*%
M02*
