M48
; DRILL file {KiCad 8.0.3} date 2024-06-12T08:46:10+0200
; FORMAT={-:-/ absolute / metric / decimal}
; #@! TF.CreationDate,2024-06-12T08:46:10+02:00
; #@! TF.GenerationSoftware,Kicad,Pcbnew,8.0.3
; #@! TF.FileFunction,MixedPlating,1,4
FMAT,2
METRIC
; #@! TA.AperFunction,Plated,PTH,ViaDrill
T1C0.300
; #@! TA.AperFunction,Plated,PTH,ViaDrill
T2C0.400
; #@! TA.AperFunction,Plated,PTH,ComponentDrill
T3C0.600
; #@! TA.AperFunction,Plated,PTH,ComponentDrill
T4C1.000
; #@! TA.AperFunction,Plated,PTH,ComponentDrill
T5C1.025
; #@! TA.AperFunction,Plated,PTH,ComponentDrill
T6C2.000
; #@! TA.AperFunction,NonPlated,NPTH,ComponentDrill
T7C0.500
; #@! TA.AperFunction,NonPlated,NPTH,ComponentDrill
T8C0.650
; #@! TA.AperFunction,NonPlated,NPTH,ComponentDrill
T9C1.000
; #@! TA.AperFunction,NonPlated,NPTH,ComponentDrill
T10C1.420
; #@! TA.AperFunction,NonPlated,NPTH,ComponentDrill
T11C2.200
; #@! TA.AperFunction,NonPlated,NPTH,ComponentDrill
T12C3.000
%
G90
G05
T1
X7.6Y19.3
X7.85Y13.9
X7.9Y88.0
X7.9Y68.4
X8.7Y88.0
X8.7Y68.4
X8.985Y98.52
X8.985Y95.98
X8.985Y65.5
X8.985Y62.96
X8.985Y7.08
X9.1Y42.5
X9.5Y88.0
X9.5Y68.4
X9.5Y25.8
X9.5Y21.4
X9.7Y30.9
X10.1Y38.6
X10.3Y88.0
X10.3Y68.4
X10.3Y59.2
X10.3Y51.2
X10.3Y41.7
X10.6Y47.5
X11.1Y88.0
X11.1Y68.4
X11.2Y39.5
X11.525Y101.06
X11.525Y95.98
X11.525Y90.9
X11.525Y65.5
X11.525Y32.48
X11.525Y7.08
X11.9Y88.0
X11.9Y68.4
X12.0Y38.5
X12.2Y55.0
X12.3Y60.9
X12.55Y39.6
X12.7Y88.0
X12.7Y68.4
X12.8Y30.9
X13.2Y8.2
X13.3Y37.9
X13.42Y23.727
X13.5Y88.0
X13.5Y68.4
X13.6Y89.6
X13.8Y30.1
X13.9Y14.0
X13.915Y20.138
X13.924Y36.324
X13.95Y45.975
X14.065Y101.06
X14.065Y98.52
X14.065Y95.98
X14.2Y92.4
X14.2Y85.4
X14.2Y84.6
X14.2Y83.8
X14.2Y83.0
X14.2Y82.2
X14.2Y81.4
X14.2Y80.6
X14.2Y79.8
X14.2Y79.0
X14.2Y78.2
X14.2Y77.4
X14.2Y76.6
X14.2Y75.8
X14.2Y75.0
X14.2Y74.2
X14.2Y73.4
X14.2Y72.6
X14.2Y71.8
X14.2Y71.0
X14.366Y16.542
X14.7Y39.8
X14.828Y27.066
X15.8Y60.9
X15.9Y8.2
X16.193Y30.423
X16.2Y91.8
X16.2Y91.0
X16.3Y71.5
X16.4Y62.3
X16.59Y13.682
X16.6Y43.3
X16.605Y83.28
X16.605Y80.74
X16.605Y78.2
X16.605Y75.66
X16.605Y73.12
X16.605Y57.88
X16.605Y52.8
X16.605Y50.26
X16.605Y35.02
X16.605Y32.48
X16.89Y23.271
X16.9Y48.2
X16.9Y47.3
X16.9Y10.8
X17.075Y71.05
X17.2Y91.8
X17.3Y101.6
X17.3Y96.0
X17.386Y20.595
X17.599Y17.882
X17.825Y71.05
X17.9Y37.4
X18.061Y25.727
X18.2Y64.1
X18.4Y20.9
X18.7Y71.5
X18.777Y10.793
X18.9Y89.225
X18.97Y28.292
X19.0Y62.1
X19.08Y91.3
X19.082Y32.61
X19.1Y25.6
X19.145Y83.28
X19.145Y75.66
X19.366Y15.812
X19.6Y9.4
X19.6Y7.0
X19.68Y102.2
X19.68Y88.28
X19.7Y16.9
X19.714Y8.575
X19.714Y7.825
X20.0Y71.9
X20.0Y54.9
X20.2Y35.3
X20.3Y89.2
X20.3Y71.05
X20.4Y63.3
X20.6Y28.9
X20.9Y37.8
X20.908Y13.57
X20.943Y34.645
X20.95Y102.2
X21.212Y29.834
X21.25Y71.05
X21.3Y66.76
X21.3Y35.5
X21.6Y52.9
X21.685Y57.88
X21.685Y50.26
X21.685Y14.7
X21.685Y7.08
X21.942Y34.834
X22.07Y88.3
X22.134Y9.428
X22.2Y89.2
X22.2Y71.05
X22.225Y102.2
X22.275Y44.9
X22.3Y36.2
X22.7Y35.5
X23.15Y71.05
X23.2Y79.65
X23.282Y31.601
X23.34Y67.4
X23.473Y12.661
X23.475Y102.2
X23.7Y44.9
X23.9Y48.3
X24.225Y83.28
X24.3Y71.0
X24.4Y13.1
X24.6Y88.3
X24.76Y102.2
X24.9Y59.3
X24.9Y44.5
X25.0Y62.8
X25.0Y50.4
X25.0Y2.6
X25.0Y1.2
X25.2Y95.9
X25.2Y94.9
X25.2Y89.2
X25.2Y45.3
X25.4Y64.15
X25.473Y8.02
X25.486Y42.495
X25.5Y48.3
X25.538Y35.285
X25.7Y59.368
X25.7Y1.9
X25.929Y11.49
X25.995Y31.814
X26.025Y102.2
X26.025Y96.2
X26.068Y57.072
X26.3Y60.6
X26.411Y44.4
X26.425Y7.09
X26.55Y89.2
X26.765Y83.28
X26.765Y27.4
X26.765Y22.32
X26.765Y19.78
X26.765Y17.24
X26.765Y14.7
X26.8Y31.4
X27.05Y50.75
X27.05Y44.8
X27.15Y88.3
X27.175Y7.09
X27.3Y102.2
X27.3Y52.4
X27.4Y72.1
X27.4Y66.0
X27.4Y63.5
X27.4Y53.7
X28.179Y48.279
X28.2Y42.5
X28.2Y25.9
X28.374Y51.626
X28.575Y102.2
X28.605Y11.986
X28.65Y7.1
X28.671Y32.31
X28.8Y48.9
X29.127Y35.78
X29.2Y95.3
X29.2Y8.7
X29.3Y2.8
X29.3Y1.5
X29.305Y22.32
X29.305Y19.78
X29.305Y17.24
X29.6Y71.7
X29.6Y12.5
X29.84Y102.2
X29.84Y96.11
X30.1Y78.2
X30.1Y76.95
X30.1Y73.1
X30.1Y36.3
X30.3Y61.8
X30.3Y30.8
X30.5Y79.5
X30.524Y65.5
X30.6Y70.7
X30.778Y83.922
X30.835Y75.035
X30.835Y73.765
X31.11Y102.2
X31.127Y31.139
X31.2Y91.6
X31.224Y44.676
X31.318Y12.199
X31.5Y95.9
X31.5Y95.0
X31.5Y63.4
X31.7Y88.3
X31.845Y17.24
X32.15Y46.3
X32.25Y86.4
X32.375Y102.2
X32.375Y95.15
X32.466Y34.372
X32.6Y68.4
X32.6Y14.6
X32.658Y8.966
X33.104Y36.341
X33.2Y56.8
X33.2Y55.0
X33.224Y96.124
X33.3Y60.9
X33.388Y13.966
X33.5Y79.9
X33.5Y51.3
X33.543Y53.523
X33.6Y84.8
X33.6Y83.7
X33.65Y102.2
X33.7Y30.23
X33.85Y95.1
X33.85Y90.0
X33.9Y88.8
X33.9Y72.3
X34.1Y66.3
X34.1Y43.4
X34.15Y78.8
X34.25Y87.8
X34.3Y28.2
X34.385Y17.24
X34.385Y7.08
X34.385Y4.54
X34.5Y36.2
X34.6Y94.9
X34.8Y90.2
X34.8Y55.7
X34.8Y52.2
X34.9Y77.5
X35.234Y27.988
X35.4Y67.7
X35.4Y33.9
X35.518Y11.19
X35.55Y89.5
X35.6Y56.126
X35.63Y15.508
X35.8Y49.2
X35.823Y33.007
X35.9Y71.1
X35.9Y69.6
X36.1Y34.6
X36.1Y19.0
X36.15Y36.2
X36.2Y67.2
X36.2Y66.0
X36.25Y57.0
X36.4Y96.1
X36.4Y23.8
X36.5Y33.7
X36.539Y18.073
X36.65Y69.1
X36.7Y79.6
X36.7Y72.05
X36.8Y32.5
X36.925Y3.44
X36.95Y65.55
X36.95Y57.65
X37.001Y25.918
X37.1Y6.3
X37.2Y53.4
X37.2Y52.5
X37.214Y23.205
X37.225Y35.925
X37.3Y101.5
X37.4Y68.4
X37.45Y81.85
X37.485Y70.715
X37.486Y71.564
X37.5Y87.7
X37.5Y69.9
X37.5Y33.1
X37.6Y57.2
X37.71Y20.529
X37.8Y97.3
X38.01Y30.118
X38.2Y58.0
X38.3Y46.65
X38.4Y89.6
X38.4Y82.4
X38.407Y13.377
X38.407Y7.393
X38.65Y62.25
X38.7Y69.1
X38.7Y51.0
X38.7Y50.3
X38.7Y49.5
X38.7Y34.5
X38.9Y58.7
X39.1Y90.45
X39.4Y55.8
X39.4Y55.0
X39.4Y54.2
X39.4Y53.4
X39.4Y52.6
X39.465Y32.48
X39.465Y12.16
X39.59Y69.11
X39.6Y51.0
X39.6Y50.3
X39.65Y82.5
X39.7Y88.6
X39.75Y65.05
X39.772Y16.734
X40.2Y62.25
X40.2Y56.6
X40.2Y55.8
X40.2Y55.0
X40.2Y54.2
X40.2Y53.4
X40.2Y52.6
X40.234Y27.258
X40.3Y63.143
X40.685Y23.662
X40.7Y47.1
X40.7Y36.3
X40.8Y57.3
X41.134Y49.7
X41.15Y73.8
X41.18Y20.073
X41.275Y63.2
X41.3Y75.7
X41.4Y45.0
X41.4Y44.0
X41.6Y57.3
X41.65Y6.3
X41.7Y46.2
X41.748Y3.752
X41.75Y70.05
X41.834Y49.7
X42.005Y101.06
X42.005Y95.98
X42.005Y37.56
X42.005Y32.48
X42.005Y29.94
X42.005Y27.4
X42.005Y17.24
X42.005Y14.7
X42.005Y12.16
X42.005Y9.62
X42.1Y77.3
X42.25Y90.85
X42.3Y38.9
X42.35Y82.6
X42.4Y57.3
X42.45Y93.05
X42.534Y49.7
X42.584Y52.0
X42.6Y70.05
X42.6Y63.0
X42.7Y65.5
X42.9Y83.2
X42.9Y46.6
X42.9Y45.8
X42.9Y45.0
X43.15Y62.35
X43.2Y78.4
X43.2Y76.1
X43.2Y73.8
X43.2Y57.3
X43.5Y71.5
X43.8Y1.1
X43.9Y49.4
X43.9Y48.6
X43.95Y45.3
X44.0Y57.3
X44.1Y43.9
X44.2Y82.5
X44.304Y72.65
X44.4Y94.7
X44.545Y101.06
X44.545Y95.98
X44.545Y32.48
X44.545Y29.94
X44.545Y27.4
X44.545Y24.86
X44.545Y22.32
X44.545Y19.78
X44.545Y17.24
X44.545Y14.7
X44.545Y7.08
X44.55Y43.4
X44.6Y80.8
X44.7Y49.4
X44.7Y48.6
X44.8Y57.3
X44.838Y66.746
X44.9Y70.562
X44.9Y69.642
X44.95Y47.8
X44.95Y45.22
X45.0Y88.3
X45.0Y86.6
X45.1Y50.0
X45.3Y75.5
X45.6Y78.7
X45.6Y38.9
X45.7Y89.8
X45.7Y66.8
X45.75Y59.0
X45.9Y59.9
X46.15Y42.1
X46.5Y38.2
X46.55Y72.325
X46.6Y3.9
X46.65Y79.45
X46.7Y74.2
X46.8Y75.3
X46.9Y77.85
X46.95Y42.75
X50.58Y99.89
X50.58Y98.62
X50.58Y97.35
X50.58Y95.1
X50.58Y93.621
X50.58Y92.75
X50.58Y91.75
X50.58Y90.6
X50.58Y89.1
X50.58Y87.19
X50.58Y86.25
X50.58Y84.65
X50.58Y83.38
X50.58Y82.11
X50.58Y67.74
X50.58Y61.39
X50.58Y60.12
X50.58Y58.85
X50.58Y57.58
X50.58Y56.31
X51.45Y9.9
X52.01Y48.36
X52.01Y45.82
X52.01Y43.28
X52.01Y40.74
X52.01Y38.2
X52.01Y35.66
X52.01Y33.12
X52.01Y30.58
X52.01Y28.04
X52.01Y25.5
X52.01Y22.96
X52.01Y20.42
X52.01Y17.88
X52.01Y15.34
X52.01Y12.8
X52.165Y101.06
X52.165Y80.74
X52.165Y75.66
X52.165Y55.34
X52.215Y50.26
X53.55Y10.6
X54.55Y48.36
X54.55Y45.82
X54.55Y43.28
X54.55Y40.74
X54.55Y38.2
X54.55Y35.66
X54.55Y33.12
X54.55Y30.58
X54.55Y28.04
X54.55Y25.5
X54.55Y22.96
X54.55Y20.42
X54.55Y17.88
X54.55Y15.34
X54.55Y12.8
X54.755Y50.26
X57.295Y50.26
X57.295Y9.62
X57.8Y76.0
X57.9Y101.2
X57.9Y88.45
X57.9Y80.5
X57.95Y98.62
X57.95Y97.35
X57.95Y95.4
X57.95Y93.54
X57.95Y87.2
X57.95Y85.8
X57.95Y82.11
X57.95Y67.74
X57.95Y57.58
X57.95Y56.31
X58.4Y72.2
X58.45Y43.5
X58.45Y39.6
X58.45Y37.2
X58.45Y34.7
X58.45Y32.2
X58.55Y45.9
X58.75Y91.1
X58.85Y87.2
X59.0Y66.8
X59.0Y63.2
X59.0Y54.6
X59.07Y96.38
X59.15Y15.0
X59.25Y85.0
X59.5Y68.6
X59.55Y92.85
X59.785Y75.66
X59.785Y57.88
X59.835Y50.26
X60.35Y91.5
X60.45Y16.7
X60.7Y60.7
X61.2Y96.6
X61.5Y62.6
X61.676Y87.976
X61.85Y85.3
X61.9Y67.3
X61.95Y27.4
X62.05Y25.0
X62.276Y30.326
X62.325Y101.06
X62.325Y98.52
X62.325Y83.28
X62.325Y80.74
X62.325Y75.66
X62.325Y73.12
X62.325Y57.88
X62.325Y55.34
X62.375Y47.72
X62.375Y45.18
X62.375Y14.7
X62.375Y12.16
X62.375Y9.62
X62.5Y92.3
X62.6Y90.45
X62.65Y85.4
X62.7Y88.85
X62.85Y22.6
X63.55Y20.5
X63.576Y23.8
X63.6Y85.3
X63.65Y28.9
X63.8Y72.2
X64.1Y58.3
X64.65Y67.0
X64.85Y27.7
X65.0Y62.6
X65.55Y88.8
X65.6Y93.1
X65.65Y34.1
X65.65Y32.7
X65.65Y22.5
X65.95Y39.7
X66.15Y36.6
X66.25Y61.8
X66.25Y33.3
X66.25Y31.44
X66.35Y30.1
X67.35Y26.9
X67.4Y61.8
X67.455Y19.78
X67.6Y66.4
X67.6Y63.9
X67.65Y95.1
X68.4Y59.0
X68.65Y35.4
X69.25Y38.44
X69.25Y37.17
X69.25Y34.9
X69.25Y33.36
X69.25Y28.35
X69.25Y27.01
X69.25Y26.0
X69.25Y24.7
X69.25Y23.2
X69.25Y21.7
X69.5Y86.175
X70.9Y69.0
X71.05Y19.3
X71.5Y59.0
X71.7Y95.1
X71.7Y62.4
X71.825Y68.7
X72.9Y67.0
X73.5Y86.2
X74.7Y68.1
X74.7Y65.7
X74.7Y63.1
X75.075Y40.1
X75.075Y19.78
X75.3Y71.2
X75.6Y93.44
X75.6Y88.36
X75.9Y59.5
X76.62Y38.44
X76.62Y37.17
X76.62Y35.9
X76.62Y34.63
X76.62Y33.36
X76.62Y31.95
X76.62Y30.82
X76.62Y29.55
X76.62Y28.28
X76.62Y27.01
X76.62Y25.74
X76.62Y24.47
X76.62Y23.2
X76.62Y21.93
X76.7Y67.9
X76.7Y62.7
T2
X18.4Y102.2
X18.4Y96.0
X20.75Y54.15
X23.45Y7.2
X24.9Y7.05
X25.2Y4.3
X29.4Y4.3
X29.7Y7.1
X31.15Y7.2
X34.9Y38.5
X35.1Y43.4
X35.1Y42.5
X36.0Y38.5
X45.75Y55.3
X45.75Y53.3
X45.75Y51.2
X58.3Y74.1
X72.95Y61.7
X74.55Y61.75
T4
X24.8Y29.4
X24.8Y14.9
X27.3Y29.4
X29.8Y29.4
X29.8Y14.9
X56.375Y47.34
X56.375Y44.8
X56.375Y42.26
X56.375Y39.72
X56.375Y37.18
X56.375Y34.64
X56.375Y32.1
X56.375Y29.56
X56.375Y27.02
X56.375Y24.48
X56.375Y21.94
X56.375Y19.4
X56.375Y16.86
X56.375Y14.32
X56.375Y11.78
X60.425Y39.72
X60.425Y37.18
X60.425Y34.64
X60.425Y32.1
X60.425Y29.56
X60.425Y27.02
X60.425Y24.48
X60.425Y21.94
X60.425Y19.4
T5
X39.8Y2.5
T7
X5.25Y93.6
X5.25Y92.85
X5.25Y92.1
X5.25Y76.4
X5.25Y75.65
X5.25Y74.9
X5.25Y56.4
X5.25Y55.65
X5.25Y54.9
X5.25Y36.4
X5.25Y35.65
X5.25Y34.9
X5.25Y16.4
X5.25Y15.65
X5.25Y14.9
X6.75Y93.6
X6.75Y92.85
X6.75Y92.1
X6.75Y76.4
X6.75Y75.65
X6.75Y74.9
X6.75Y56.4
X6.75Y55.65
X6.75Y54.9
X6.75Y36.4
X6.75Y35.65
X6.75Y34.9
X6.75Y16.4
X6.75Y15.65
X6.75Y14.9
X47.85Y91.75
X47.85Y91.0
X47.85Y90.25
X47.85Y65.95
X47.85Y65.2
X47.85Y64.45
X47.85Y41.3
X47.85Y40.55
X47.85Y39.8
X47.85Y19.3
X47.85Y18.55
X47.85Y17.8
X47.85Y4.55
X47.85Y3.8
X47.85Y3.05
X49.35Y91.75
X49.35Y91.0
X49.35Y90.25
X49.35Y65.95
X49.35Y65.2
X49.35Y64.45
X49.35Y41.3
X49.35Y40.55
X49.35Y39.8
X49.35Y19.3
X49.35Y18.55
X49.35Y17.8
X49.35Y4.55
X49.35Y3.8
X49.35Y3.05
X55.925Y78.85
X55.925Y77.35
X55.925Y53.05
X55.925Y51.55
X55.925Y7.55
X55.925Y6.05
X56.675Y78.85
X56.675Y77.35
X56.675Y53.05
X56.675Y51.55
X56.675Y7.55
X56.675Y6.05
X57.425Y78.85
X57.425Y77.35
X57.425Y53.05
X57.425Y51.55
X57.425Y7.55
X57.425Y6.05
X77.85Y91.75
X77.85Y91.0
X77.85Y90.25
X77.85Y65.95
X77.85Y65.2
X77.85Y64.45
X77.85Y30.3
X77.85Y29.55
X77.85Y28.8
X77.85Y3.65
X77.85Y2.9
X77.85Y2.15
X79.35Y91.75
X79.35Y91.0
X79.35Y90.25
X79.35Y65.95
X79.35Y65.2
X79.35Y64.45
X79.35Y30.3
X79.35Y29.55
X79.35Y28.8
X79.35Y3.65
X79.35Y2.9
X79.35Y2.15
T8
X24.41Y4.905
X30.19Y4.905
T9
X12.2Y59.2
X12.2Y51.2
T10
X16.82Y99.2
X37.78Y99.2
X54.268Y101.48
X54.268Y80.52
X54.268Y75.68
X54.268Y54.72
X72.932Y40.03
X72.932Y19.07
T11
X11.26Y98.14
X11.26Y34.634
X11.26Y10.86
X43.34Y98.14
X43.34Y34.634
X43.34Y10.86
X60.45Y48.3
X60.45Y10.8
X60.75Y99.9
X60.75Y82.1
X60.75Y74.1
X60.75Y56.3
T12
X71.2Y65.2
T3
G00X22.98Y5.955
M15
G01X22.98Y4.855
M16
G05
G00X22.98Y1.625
M15
G01X22.98Y0.825
M16
G05
G00X31.62Y5.955
M15
G01X31.62Y4.855
M16
G05
G00X31.62Y1.625
M15
G01X31.62Y0.825
M16
G05
T6
G00X21.6Y21.5
M15
G01X21.6Y22.3
M16
G05
G00X33.0Y21.5
M15
G01X33.0Y22.3
M16
G05
M30
