M48
; DRILL file {KiCad 7.0.7} date Wed Jan 31 01:15:26 2024
; FORMAT={-:-/ absolute / metric / decimal}
; #@! TF.CreationDate,2024-01-31T01:15:26+01:00
; #@! TF.GenerationSoftware,Kicad,Pcbnew,7.0.7
; #@! TF.FileFunction,MixedPlating,1,2
FMAT,2
METRIC
; #@! TA.AperFunction,Plated,PTH,ViaDrill
T1C0.400
; #@! TA.AperFunction,Plated,PTH,ComponentDrill
T2C0.800
; #@! TA.AperFunction,Plated,PTH,ComponentDrill
T3C1.000
; #@! TA.AperFunction,Plated,PTH,ComponentDrill
T4C2.000
; #@! TA.AperFunction,Plated,PTH,ComponentDrill
T5C3.200
%
G90
G05
T1
X190.5Y-90.17
X195.26Y-198.12
X195.261Y-197.151
X198.12Y-90.17
X210.312Y-189.987
X211.079Y-192.786
X211.079Y-194.31
X212.603Y-192.786
X212.603Y-194.31
X213.106Y-83.312
X214.411Y-80.694
X218.44Y-82.55
X220.731Y-179.324
X229.362Y-178.308
X230.378Y-170.942
X232.156Y-185.42
X233.172Y-175.006
X233.407Y-177.637
X233.68Y-180.594
X234.95Y-164.846
X235.204Y-169.926
X237.236Y-185.166
X238.252Y-189.992
X239.776Y-166.624
X241.808Y-162.052
X242.316Y-187.198
X245.364Y-165.862
X245.872Y-191.008
X247.904Y-186.436
X249.428Y-163.068
X250.444Y-167.894
X252.476Y-183.134
X252.73Y-188.214
X253.746Y-172.466
X254.508Y-178.054
X255.27Y-167.64
X257.556Y-182.118
X258.318Y-174.498
T2
X152.4Y-167.65
X154.94Y-167.65
X157.48Y-167.65
T3
X134.62Y-115.57
X134.62Y-135.89
X135.89Y-86.36
X135.89Y-88.9
X135.89Y-91.44
X135.89Y-93.98
X135.89Y-96.52
X135.89Y-99.06
X135.89Y-101.6
X135.89Y-104.14
X135.89Y-106.68
X135.89Y-144.79
X135.89Y-147.33
X135.89Y-149.87
X135.89Y-152.41
X135.89Y-154.95
X135.89Y-157.49
X135.89Y-160.03
X135.89Y-167.65
X135.89Y-170.19
X135.89Y-172.73
X135.89Y-175.27
X135.89Y-177.81
X135.89Y-180.35
X135.89Y-182.89
X137.16Y-115.57
X137.16Y-135.89
X139.7Y-115.57
X139.7Y-135.89
X142.24Y-86.36
X142.24Y-88.9
X142.24Y-91.44
X142.24Y-93.98
X142.24Y-96.52
X142.24Y-99.06
X142.24Y-101.6
X142.24Y-104.14
X142.24Y-106.68
X142.24Y-110.49
X142.24Y-115.57
X142.24Y-135.89
X142.24Y-140.97
X142.24Y-144.78
X142.24Y-147.32
X142.24Y-149.86
X142.24Y-152.4
X142.24Y-154.94
X142.24Y-157.48
X142.24Y-160.02
X142.24Y-167.65
X142.24Y-170.19
X142.24Y-172.73
X142.24Y-175.27
X142.24Y-177.81
X142.24Y-180.35
X142.24Y-182.89
X144.78Y-110.49
X144.78Y-115.57
X144.78Y-135.89
X144.78Y-140.97
X147.32Y-110.49
X147.32Y-115.57
X147.32Y-135.89
X147.32Y-140.97
X149.86Y-110.49
X149.86Y-140.97
X152.4Y-172.73
X154.94Y-172.73
X156.21Y-86.36
X156.21Y-93.98
X156.21Y-107.95
X156.21Y-111.76
X158.75Y-86.36
X158.75Y-93.98
X158.75Y-107.95
X158.75Y-111.76
X158.75Y-172.73
X158.75Y-175.27
X158.75Y-177.81
X161.29Y-86.36
X161.29Y-93.98
X161.29Y-107.95
X161.29Y-111.76
X163.83Y-86.36
X163.83Y-93.98
X163.83Y-107.95
X163.83Y-111.76
X163.83Y-127.0
X163.83Y-129.54
X163.83Y-132.08
X163.83Y-134.62
X163.83Y-137.16
X163.83Y-139.7
X163.838Y-152.4
X163.838Y-154.94
X163.838Y-157.48
X166.37Y-86.36
X166.37Y-93.98
X166.37Y-107.95
X166.37Y-111.76
X168.91Y-86.36
X168.91Y-93.98
X168.91Y-107.95
X168.91Y-111.76
X169.545Y-193.04
X170.18Y-127.0
X170.18Y-129.54
X170.18Y-132.08
X170.18Y-134.62
X170.18Y-137.16
X170.18Y-139.7
X171.45Y-86.36
X171.45Y-93.98
X171.45Y-107.95
X171.45Y-111.76
X172.085Y-193.04
X173.355Y-182.88
X173.355Y-186.69
X173.99Y-86.36
X173.99Y-93.98
X173.99Y-107.95
X173.99Y-111.76
X175.26Y-154.94
X175.26Y-161.29
X175.895Y-182.88
X175.895Y-186.69
X176.53Y-86.36
X176.53Y-93.98
X176.53Y-107.95
X176.53Y-111.76
X177.165Y-193.04
X177.8Y-154.94
X177.8Y-161.29
X179.705Y-193.04
X180.34Y-154.94
X180.34Y-161.29
X180.34Y-170.18
X180.34Y-182.88
X181.61Y-88.895
X181.61Y-91.435
X182.88Y-154.94
X182.88Y-161.29
X182.88Y-170.18
X182.88Y-182.88
X184.15Y-88.895
X184.15Y-91.435
X185.42Y-154.94
X185.42Y-161.29
X186.69Y-88.895
X186.69Y-91.435
X187.96Y-127.0
X187.96Y-129.54
X187.96Y-132.08
X187.96Y-134.62
X187.96Y-137.16
X187.96Y-139.7
X187.96Y-154.94
X187.96Y-161.29
X189.23Y-88.895
X189.23Y-91.435
X191.77Y-88.895
X191.77Y-91.435
X194.31Y-88.895
X194.31Y-91.435
X194.31Y-127.0
X194.31Y-129.54
X194.31Y-132.08
X194.31Y-134.62
X194.31Y-137.16
X194.31Y-139.7
X196.85Y-88.895
X196.85Y-91.435
X199.39Y-88.895
X199.39Y-91.435
X201.93Y-88.895
X201.93Y-91.435
X204.47Y-88.895
X204.47Y-91.435
X207.01Y-88.895
X207.01Y-91.435
X210.185Y-107.95
X210.185Y-113.03
X210.185Y-135.89
X210.185Y-140.97
X210.566Y-157.475
X210.566Y-160.015
X210.566Y-162.555
X210.566Y-165.095
X210.566Y-167.635
X210.566Y-170.175
X210.566Y-172.715
X210.566Y-175.255
X210.566Y-177.795
X210.566Y-180.335
X210.566Y-182.875
X210.566Y-185.415
X212.725Y-107.95
X212.725Y-113.03
X212.725Y-135.89
X212.725Y-140.97
X213.106Y-157.475
X213.106Y-160.015
X213.106Y-162.555
X213.106Y-165.095
X213.106Y-167.635
X213.106Y-170.175
X213.106Y-172.715
X213.106Y-175.255
X213.106Y-177.795
X213.106Y-180.335
X213.106Y-182.875
X213.106Y-185.415
X215.265Y-107.95
X215.265Y-113.03
X215.265Y-135.89
X215.265Y-140.97
X217.805Y-107.95
X217.805Y-113.03
X217.805Y-135.89
X217.805Y-140.97
X218.933Y-95.504
X220.345Y-107.95
X220.345Y-113.03
X220.345Y-135.89
X220.345Y-140.97
X221.473Y-95.504
X222.753Y-82.55
X222.885Y-107.95
X222.885Y-113.03
X222.885Y-135.89
X222.885Y-140.97
X224.013Y-95.504
X224.028Y-86.614
X224.028Y-89.154
X224.028Y-91.694
X225.293Y-82.55
X225.425Y-107.95
X225.425Y-113.03
X225.425Y-135.89
X225.425Y-140.97
X227.965Y-107.95
X227.965Y-113.03
X227.965Y-135.89
X227.965Y-140.97
X230.505Y-107.95
X230.505Y-113.03
X230.505Y-135.89
X230.505Y-140.97
X233.045Y-107.95
X233.045Y-113.03
X233.045Y-135.89
X233.045Y-140.97
X235.204Y-173.467
X235.204Y-176.007
X235.204Y-178.547
X235.585Y-107.95
X235.585Y-113.03
X235.585Y-135.89
X235.585Y-140.97
X238.125Y-107.95
X238.125Y-113.03
X238.125Y-135.89
X238.125Y-140.97
X240.03Y-88.265
X240.665Y-107.95
X240.665Y-113.03
X240.665Y-135.89
X240.665Y-140.97
X241.34Y-169.43
X241.34Y-183.93
X242.57Y-88.265
X243.205Y-107.95
X243.205Y-113.03
X243.205Y-135.89
X243.205Y-140.97
X243.84Y-183.93
X244.094Y-157.48
X245.11Y-88.265
X245.745Y-107.95
X245.745Y-113.03
X245.745Y-135.89
X245.745Y-140.97
X246.34Y-169.43
X246.34Y-183.93
X247.65Y-88.265
X248.285Y-107.95
X248.285Y-113.03
X248.285Y-135.89
X248.285Y-140.97
X250.19Y-88.265
X250.825Y-107.95
X250.825Y-113.03
X250.825Y-135.89
X250.825Y-140.97
X252.73Y-88.265
X253.365Y-107.95
X253.365Y-113.03
X253.365Y-135.89
X253.365Y-140.97
X255.27Y-88.265
X255.905Y-107.95
X255.905Y-113.03
X255.905Y-135.89
X255.905Y-140.97
X257.81Y-88.265
X258.445Y-107.95
X258.445Y-113.03
X258.445Y-135.89
X258.445Y-140.97
X260.35Y-88.265
X260.985Y-107.95
X260.985Y-113.03
X260.985Y-135.89
X260.985Y-140.97
X262.89Y-88.265
X263.525Y-107.95
X263.525Y-113.03
X263.525Y-135.89
X263.525Y-140.97
T5
X224.79Y-157.48
X224.79Y-195.58
X262.89Y-157.48
X262.89Y-195.58
T4
G00X238.14Y-176.03
M15
G01X238.14Y-176.83
M16
G05
G00X249.54Y-176.03
M15
G01X249.54Y-176.83
M16
G05
T0
M30
