%TF.GenerationSoftware,KiCad,Pcbnew,7.0.7*%
%TF.CreationDate,2024-01-31T01:15:34+01:00*%
%TF.ProjectId,POC-TB,504f432d-5442-42e6-9b69-6361645f7063,rev?*%
%TF.SameCoordinates,Original*%
%TF.FileFunction,Soldermask,Bot*%
%TF.FilePolarity,Negative*%
%FSLAX46Y46*%
G04 Gerber Fmt 4.6, Leading zero omitted, Abs format (unit mm)*
G04 Created by KiCad (PCBNEW 7.0.7) date 2024-01-31 01:15:34*
%MOMM*%
%LPD*%
G01*
G04 APERTURE LIST*
%ADD10R,1.700000X1.700000*%
%ADD11O,1.700000X1.700000*%
%ADD12C,1.440000*%
%ADD13C,6.400000*%
%ADD14C,1.602000*%
%ADD15O,3.102000X3.902000*%
G04 APERTURE END LIST*
D10*
%TO.C,J39*%
X224028000Y-91694000D03*
D11*
X224028000Y-89154000D03*
X224028000Y-86614000D03*
%TD*%
D10*
%TO.C,J1*%
X210185000Y-135890000D03*
D11*
X212725000Y-135890000D03*
X215265000Y-135890000D03*
X217805000Y-135890000D03*
X220345000Y-135890000D03*
X222885000Y-135890000D03*
X225425000Y-135890000D03*
X227965000Y-135890000D03*
X230505000Y-135890000D03*
X233045000Y-135890000D03*
X235585000Y-135890000D03*
X238125000Y-135890000D03*
X240665000Y-135890000D03*
X243205000Y-135890000D03*
X245745000Y-135890000D03*
X248285000Y-135890000D03*
X250825000Y-135890000D03*
X253365000Y-135890000D03*
X255905000Y-135890000D03*
X258445000Y-135890000D03*
X260985000Y-135890000D03*
X263525000Y-135890000D03*
%TD*%
D10*
%TO.C,J32*%
X187960000Y-127000000D03*
D11*
X187960000Y-129540000D03*
X187960000Y-132080000D03*
X187960000Y-134620000D03*
X187960000Y-137160000D03*
X187960000Y-139700000D03*
%TD*%
D10*
%TO.C,J7*%
X244094000Y-157480000D03*
%TD*%
%TO.C,J40*%
X224013000Y-95504000D03*
D11*
X221473000Y-95504000D03*
X218933000Y-95504000D03*
%TD*%
D12*
%TO.C,RV1*%
X152400000Y-167650000D03*
X154940000Y-167650000D03*
X157480000Y-167650000D03*
%TD*%
D13*
%TO.C,H1*%
X224790000Y-157480000D03*
%TD*%
D14*
%TO.C,E1*%
X241340000Y-169430000D03*
X246340000Y-169430000D03*
X241340000Y-183930000D03*
X246340000Y-183930000D03*
X243840000Y-183930000D03*
D15*
X238140000Y-176430000D03*
X249540000Y-176430000D03*
%TD*%
D10*
%TO.C,J29*%
X135890000Y-160030000D03*
D11*
X135890000Y-157490000D03*
X135890000Y-154950000D03*
X135890000Y-152410000D03*
X135890000Y-149870000D03*
X135890000Y-147330000D03*
X135890000Y-144790000D03*
%TD*%
D10*
%TO.C,J12*%
X135890000Y-106680000D03*
D11*
X135890000Y-104140000D03*
X135890000Y-101600000D03*
X135890000Y-99060000D03*
X135890000Y-96520000D03*
X135890000Y-93980000D03*
X135890000Y-91440000D03*
X135890000Y-88900000D03*
X135890000Y-86360000D03*
%TD*%
D13*
%TO.C,H4*%
X262890000Y-195580000D03*
%TD*%
D10*
%TO.C,J8*%
X135890000Y-182890000D03*
D11*
X135890000Y-180350000D03*
X135890000Y-177810000D03*
X135890000Y-175270000D03*
X135890000Y-172730000D03*
X135890000Y-170190000D03*
X135890000Y-167650000D03*
%TD*%
D10*
%TO.C,J14*%
X177165000Y-193040000D03*
D11*
X179705000Y-193040000D03*
%TD*%
D10*
%TO.C,J25*%
X156210000Y-111760000D03*
D11*
X158750000Y-111760000D03*
X161290000Y-111760000D03*
X163830000Y-111760000D03*
X166370000Y-111760000D03*
X168910000Y-111760000D03*
X171450000Y-111760000D03*
X173990000Y-111760000D03*
X176530000Y-111760000D03*
%TD*%
D10*
%TO.C,J37*%
X240030000Y-88265000D03*
D11*
X242570000Y-88265000D03*
X245110000Y-88265000D03*
X247650000Y-88265000D03*
X250190000Y-88265000D03*
X252730000Y-88265000D03*
X255270000Y-88265000D03*
X257810000Y-88265000D03*
X260350000Y-88265000D03*
X262890000Y-88265000D03*
%TD*%
D10*
%TO.C,J31*%
X170180000Y-127000000D03*
D11*
X170180000Y-129540000D03*
X170180000Y-132080000D03*
X170180000Y-134620000D03*
X170180000Y-137160000D03*
X170180000Y-139700000D03*
%TD*%
D10*
%TO.C,J20*%
X182880000Y-182880000D03*
D11*
X180340000Y-182880000D03*
%TD*%
D10*
%TO.C,J27*%
X147320000Y-115570000D03*
D11*
X144780000Y-115570000D03*
X142240000Y-115570000D03*
X139700000Y-115570000D03*
X137160000Y-115570000D03*
X134620000Y-115570000D03*
%TD*%
D13*
%TO.C,H3*%
X224790000Y-195580000D03*
%TD*%
D10*
%TO.C,J6*%
X210566000Y-157475000D03*
D11*
X213106000Y-157475000D03*
X210566000Y-160015000D03*
X213106000Y-160015000D03*
X210566000Y-162555000D03*
X213106000Y-162555000D03*
X210566000Y-165095000D03*
X213106000Y-165095000D03*
X210566000Y-167635000D03*
X213106000Y-167635000D03*
X210566000Y-170175000D03*
X213106000Y-170175000D03*
X210566000Y-172715000D03*
X213106000Y-172715000D03*
X210566000Y-175255000D03*
X213106000Y-175255000D03*
X210566000Y-177795000D03*
X213106000Y-177795000D03*
X210566000Y-180335000D03*
X213106000Y-180335000D03*
X210566000Y-182875000D03*
X213106000Y-182875000D03*
X210566000Y-185415000D03*
X213106000Y-185415000D03*
%TD*%
D10*
%TO.C,J23*%
X156210000Y-93980000D03*
D11*
X158750000Y-93980000D03*
X161290000Y-93980000D03*
X163830000Y-93980000D03*
X166370000Y-93980000D03*
X168910000Y-93980000D03*
X171450000Y-93980000D03*
X173990000Y-93980000D03*
X176530000Y-93980000D03*
%TD*%
D10*
%TO.C,J28*%
X149860000Y-110490000D03*
D11*
X147320000Y-110490000D03*
X144780000Y-110490000D03*
X142240000Y-110490000D03*
%TD*%
D10*
%TO.C,J4*%
X210185000Y-107950000D03*
D11*
X212725000Y-107950000D03*
X215265000Y-107950000D03*
X217805000Y-107950000D03*
X220345000Y-107950000D03*
X222885000Y-107950000D03*
X225425000Y-107950000D03*
X227965000Y-107950000D03*
X230505000Y-107950000D03*
X233045000Y-107950000D03*
X235585000Y-107950000D03*
X238125000Y-107950000D03*
X240665000Y-107950000D03*
X243205000Y-107950000D03*
X245745000Y-107950000D03*
X248285000Y-107950000D03*
X250825000Y-107950000D03*
X253365000Y-107950000D03*
X255905000Y-107950000D03*
X258445000Y-107950000D03*
X260985000Y-107950000D03*
X263525000Y-107950000D03*
%TD*%
D10*
%TO.C,J24*%
X156210000Y-86360000D03*
D11*
X158750000Y-86360000D03*
X161290000Y-86360000D03*
X163830000Y-86360000D03*
X166370000Y-86360000D03*
X168910000Y-86360000D03*
X171450000Y-86360000D03*
X173990000Y-86360000D03*
X176530000Y-86360000D03*
%TD*%
D10*
%TO.C,J30*%
X142240000Y-160020000D03*
D11*
X142240000Y-157480000D03*
X142240000Y-154940000D03*
X142240000Y-152400000D03*
X142240000Y-149860000D03*
X142240000Y-147320000D03*
X142240000Y-144780000D03*
%TD*%
D10*
%TO.C,J10*%
X158750000Y-172730000D03*
D11*
X158750000Y-175270000D03*
X158750000Y-177810000D03*
%TD*%
D10*
%TO.C,J11*%
X142240000Y-182890000D03*
D11*
X142240000Y-180350000D03*
X142240000Y-177810000D03*
X142240000Y-175270000D03*
X142240000Y-172730000D03*
X142240000Y-170190000D03*
X142240000Y-167650000D03*
%TD*%
D10*
%TO.C,J19*%
X187960000Y-154940000D03*
D11*
X185420000Y-154940000D03*
X182880000Y-154940000D03*
X180340000Y-154940000D03*
X177800000Y-154940000D03*
X175260000Y-154940000D03*
%TD*%
D13*
%TO.C,H2*%
X262890000Y-157480000D03*
%TD*%
D10*
%TO.C,J41*%
X222753000Y-82550000D03*
D11*
X225293000Y-82550000D03*
%TD*%
D10*
%TO.C,J18*%
X175895000Y-182880000D03*
D11*
X173355000Y-182880000D03*
%TD*%
D10*
%TO.C,J16*%
X182880000Y-170180000D03*
D11*
X180340000Y-170180000D03*
%TD*%
D10*
%TO.C,J17*%
X175895000Y-186690000D03*
D11*
X173355000Y-186690000D03*
%TD*%
D10*
%TO.C,J15*%
X187960000Y-161290000D03*
D11*
X185420000Y-161290000D03*
X182880000Y-161290000D03*
X180340000Y-161290000D03*
X177800000Y-161290000D03*
X175260000Y-161290000D03*
%TD*%
D10*
%TO.C,J21*%
X172085000Y-193040000D03*
D11*
X169545000Y-193040000D03*
%TD*%
D10*
%TO.C,J33*%
X194310000Y-127000000D03*
D11*
X194310000Y-129540000D03*
X194310000Y-132080000D03*
X194310000Y-134620000D03*
X194310000Y-137160000D03*
X194310000Y-139700000D03*
%TD*%
D10*
%TO.C,J43*%
X149860000Y-140970000D03*
D11*
X147320000Y-140970000D03*
X144780000Y-140970000D03*
X142240000Y-140970000D03*
%TD*%
D10*
%TO.C,J26*%
X156210000Y-107950000D03*
D11*
X158750000Y-107950000D03*
X161290000Y-107950000D03*
X163830000Y-107950000D03*
X166370000Y-107950000D03*
X168910000Y-107950000D03*
X171450000Y-107950000D03*
X173990000Y-107950000D03*
X176530000Y-107950000D03*
%TD*%
D10*
%TO.C,J9*%
X152400000Y-172730000D03*
D11*
X154940000Y-172730000D03*
%TD*%
D10*
%TO.C,J42*%
X147320000Y-135890000D03*
D11*
X144780000Y-135890000D03*
X142240000Y-135890000D03*
X139700000Y-135890000D03*
X137160000Y-135890000D03*
X134620000Y-135890000D03*
%TD*%
D10*
%TO.C,J22*%
X163837500Y-152400000D03*
D11*
X163837500Y-154940000D03*
X163837500Y-157480000D03*
%TD*%
D10*
%TO.C,J3*%
X210185000Y-140970000D03*
D11*
X212725000Y-140970000D03*
X215265000Y-140970000D03*
X217805000Y-140970000D03*
X220345000Y-140970000D03*
X222885000Y-140970000D03*
X225425000Y-140970000D03*
X227965000Y-140970000D03*
X230505000Y-140970000D03*
X233045000Y-140970000D03*
X235585000Y-140970000D03*
X238125000Y-140970000D03*
X240665000Y-140970000D03*
X243205000Y-140970000D03*
X245745000Y-140970000D03*
X248285000Y-140970000D03*
X250825000Y-140970000D03*
X253365000Y-140970000D03*
X255905000Y-140970000D03*
X258445000Y-140970000D03*
X260985000Y-140970000D03*
X263525000Y-140970000D03*
%TD*%
D10*
%TO.C,J2*%
X210185000Y-113030000D03*
D11*
X212725000Y-113030000D03*
X215265000Y-113030000D03*
X217805000Y-113030000D03*
X220345000Y-113030000D03*
X222885000Y-113030000D03*
X225425000Y-113030000D03*
X227965000Y-113030000D03*
X230505000Y-113030000D03*
X233045000Y-113030000D03*
X235585000Y-113030000D03*
X238125000Y-113030000D03*
X240665000Y-113030000D03*
X243205000Y-113030000D03*
X245745000Y-113030000D03*
X248285000Y-113030000D03*
X250825000Y-113030000D03*
X253365000Y-113030000D03*
X255905000Y-113030000D03*
X258445000Y-113030000D03*
X260985000Y-113030000D03*
X263525000Y-113030000D03*
%TD*%
D10*
%TO.C,J13*%
X142240000Y-106680000D03*
D11*
X142240000Y-104140000D03*
X142240000Y-101600000D03*
X142240000Y-99060000D03*
X142240000Y-96520000D03*
X142240000Y-93980000D03*
X142240000Y-91440000D03*
X142240000Y-88900000D03*
X142240000Y-86360000D03*
%TD*%
D10*
%TO.C,J34*%
X163830000Y-127000000D03*
D11*
X163830000Y-129540000D03*
X163830000Y-132080000D03*
X163830000Y-134620000D03*
X163830000Y-137160000D03*
X163830000Y-139700000D03*
%TD*%
D10*
%TO.C,J5*%
X235204000Y-178547000D03*
D11*
X235204000Y-176007000D03*
X235204000Y-173467000D03*
%TD*%
D10*
%TO.C,J38*%
X181610000Y-88895000D03*
D11*
X181610000Y-91435000D03*
X184150000Y-88895000D03*
X184150000Y-91435000D03*
X186690000Y-88895000D03*
X186690000Y-91435000D03*
X189230000Y-88895000D03*
X189230000Y-91435000D03*
X191770000Y-88895000D03*
X191770000Y-91435000D03*
X194310000Y-88895000D03*
X194310000Y-91435000D03*
X196850000Y-88895000D03*
X196850000Y-91435000D03*
X199390000Y-88895000D03*
X199390000Y-91435000D03*
X201930000Y-88895000D03*
X201930000Y-91435000D03*
X204470000Y-88895000D03*
X204470000Y-91435000D03*
X207010000Y-88895000D03*
X207010000Y-91435000D03*
%TD*%
M02*
